<svg xmlns="http://www.w3.org/2000/svg" viewBox="0 0 1738.5 1824.47"><defs><style>.cls-1,.cls-2,.cls-3,.cls-5{fill:none;}.cls-1,.cls-2,.cls-5,.cls-6,.cls-7,.cls-8,.cls-9{stroke:#fff;}.cls-1{stroke-width:2px;}.cls-2,.cls-3{stroke-miterlimit:10;stroke-width:60px;}.cls-3{stroke:#f5df48;}.cls-4,.cls-9{fill:#ffee2e;}.cls-5,.cls-6,.cls-7{stroke-width:10px;}.cls-6{font-size:539.45px;fill:#7fd5c2;}.cls-6,.cls-7{font-family:AdobeSongStd-Light-GBpc-EUC-H, Adobe Song Std;}.cls-7{font-size:332.32px;fill:#8a87ff;}.cls-8{font-size:78.57px;fill:#fff;stroke-width:2.1px;font-family:MS-Gothic, MS Gothic;letter-spacing:-0.02em;}.cls-9{stroke-width:7px;}</style></defs><g id="图层_2" data-name="图层 2"><g id="Scene_02"><g id="BG"><path id="Grid" class="cls-1" d="M624.72,350.48h81.65v112H624.72Zm81.65,112H788v-112H706.37Zm81.65,0h81.65v-112H788Zm81.65,0h81.64v-112H869.67Zm81.64,0H1033v-112H951.31Zm81.65,0h81.65v-112H1033Zm81.65,0h81.65v-112h-81.65Zm81.65,0h81.65v-112h-81.65Zm81.65,0h81.65v-112h-81.65Zm81.65,0h81.65v-112h-81.65Zm81.65,0h81.64v-112h-81.64Zm81.64,0h81.65v-112h-81.65Zm81.65,0h81.65v-112H1604.5Zm-979.78,112h81.65v-112H624.72Zm81.65,0H788v-112H706.37Zm81.65,0h81.65v-112H788Zm81.65,0h81.64v-112H869.67Zm81.64,0H1033v-112H951.31Zm81.65,0h81.65v-112H1033Zm81.65,0h81.65v-112h-81.65Zm81.65,0h81.65v-112h-81.65Zm81.65,0h81.65v-112h-81.65Zm81.65,0h81.65v-112h-81.65Zm81.65,0h81.64v-112h-81.64Zm81.64,0h81.65v-112h-81.65Zm81.65,0h81.65v-112H1604.5Zm-979.78,112h81.65v-112H624.72Zm81.65,0H788v-112H706.37Zm81.65,0h81.65v-112H788Zm81.65,0h81.64v-112H869.67Zm81.64,0H1033v-112H951.31Zm81.65,0h81.65v-112H1033Zm81.65,0h81.65v-112h-81.65Zm81.65,0h81.65v-112h-81.65Zm81.65,0h81.65v-112h-81.65Zm81.65,0h81.65v-112h-81.65Zm81.65,0h81.64v-112h-81.64Zm81.64,0h81.65v-112h-81.65Zm81.65,0h81.65v-112H1604.5Zm-979.78,112h81.65v-112H624.72Zm81.65,0H788v-112H706.37Zm81.65,0h81.65v-112H788Zm81.65,0h81.64v-112H869.67Zm81.64,0H1033v-112H951.31Zm81.65,0h81.65v-112H1033Zm81.65,0h81.65v-112h-81.65Zm81.65,0h81.65v-112h-81.65Zm81.65,0h81.65v-112h-81.65Zm81.65,0h81.65v-112h-81.65Zm81.65,0h81.64v-112h-81.64Zm81.64,0h81.65v-112h-81.65Zm81.65,0h81.65v-112H1604.5Zm-979.78,112h81.65v-112H624.72Zm81.65,0H788v-112H706.37Zm81.65,0h81.65v-112H788Zm81.65,0h81.64v-112H869.67Zm81.64,0H1033v-112H951.31Zm81.65,0h81.65v-112H1033Zm81.65,0h81.65v-112h-81.65Zm81.65,0h81.65v-112h-81.65Zm81.65,0h81.65v-112h-81.65Zm81.65,0h81.65v-112h-81.65Zm81.65,0h81.64v-112h-81.64Zm81.64,0h81.65v-112h-81.65Zm81.65,0h81.65v-112H1604.5Zm-979.78,112h81.65v-112H624.72Zm81.65,0H788v-112H706.37Zm81.65,0h81.65v-112H788Zm81.65,0h81.64v-112H869.67Zm81.64,0H1033v-112H951.31Zm81.65,0h81.65v-112H1033Zm81.65,0h81.65v-112h-81.65Zm81.65,0h81.65v-112h-81.65Zm81.65,0h81.65v-112h-81.65Zm81.65,0h81.65v-112h-81.65Zm81.65,0h81.64v-112h-81.64Zm81.64,0h81.65v-112h-81.65Zm81.65,0h81.65v-112H1604.5Zm-979.78,112h81.65v-112H624.72Zm81.65,0H788v-112H706.37Zm81.65,0h81.65v-112H788Zm81.65,0h81.64v-112H869.67Zm81.64,0H1033v-112H951.31Zm81.65,0h81.65v-112H1033Zm81.65,0h81.65v-112h-81.65Zm81.65,0h81.65v-112h-81.65Zm81.65,0h81.65v-112h-81.65Zm81.65,0h81.65v-112h-81.65Zm81.65,0h81.64v-112h-81.64Zm81.64,0h81.65v-112h-81.65Zm81.65,0h81.65v-112H1604.5Zm-979.78,112h81.65v-112H624.72Zm81.65,0H788v-112H706.37Zm81.65,0h81.65v-112H788Zm81.65,0h81.64v-112H869.67Zm81.64,0H1033v-112H951.31Zm81.65,0h81.65v-112H1033Zm81.65,0h81.65v-112h-81.65Zm81.65,0h81.65v-112h-81.65Zm81.65,0h81.65v-112h-81.65Zm81.65,0h81.65v-112h-81.65Zm81.65,0h81.64v-112h-81.64Zm81.64,0h81.65v-112h-81.65Zm81.65,0h81.65v-112H1604.5Zm-979.78,112h81.65v-112H624.72Zm81.65,0H788v-112H706.37Zm81.65,0h81.65v-112H788Zm81.65,0h81.64v-112H869.67Zm81.64,0H1033v-112H951.31Zm81.65,0h81.65v-112H1033Zm81.65,0h81.65v-112h-81.65Zm81.65,0h81.65v-112h-81.65Zm81.65,0h81.65v-112h-81.65Zm81.65,0h81.65v-112h-81.65Zm81.65,0h81.64v-112h-81.64Zm81.64,0h81.65v-112h-81.65Zm81.65,0h81.65v-112H1604.5Zm-979.78,112h81.65v-112H624.72Zm81.65,0H788v-112H706.37Zm81.65,0h81.65v-112H788Zm81.65,0h81.64v-112H869.67Zm81.64,0H1033v-112H951.31Zm81.65,0h81.65v-112H1033Zm81.65,0h81.65v-112h-81.65Zm81.65,0h81.65v-112h-81.65Zm81.65,0h81.65v-112h-81.65Zm81.65,0h81.65v-112h-81.65Zm81.65,0h81.64v-112h-81.64Zm81.64,0h81.65v-112h-81.65Zm81.65,0h81.65v-112H1604.5Zm-979.78,112h81.65v-112H624.72Zm81.65,0H788v-112H706.37Zm81.65,0h81.65v-112H788Zm81.65,0h81.64v-112H869.67Zm81.64,0H1033v-112H951.31Zm81.65,0h81.65v-112H1033Zm81.65,0h81.65v-112h-81.65Zm81.65,0h81.65v-112h-81.65Zm81.65,0h81.65v-112h-81.65Zm81.65,0h81.65v-112h-81.65Zm81.65,0h81.64v-112h-81.64Zm81.64,0h81.65v-112h-81.65Zm81.65,0h81.65v-112H1604.5Zm-979.78,112h81.65v-112H624.72Zm81.65,0H788v-112H706.37Zm81.65,0h81.65v-112H788Zm81.65,0h81.64v-112H869.67Zm81.64,0H1033v-112H951.31Zm81.65,0h81.65v-112H1033Zm81.65,0h81.65v-112h-81.65Zm81.65,0h81.65v-112h-81.65Zm81.65,0h81.65v-112h-81.65Zm81.65,0h81.65v-112h-81.65Zm81.65,0h81.64v-112h-81.64Zm81.64,0h81.65v-112h-81.65Zm81.65,0h81.65v-112H1604.5Zm133-1343.85V1694.33m-51.35-111.65h51.35m-51.35,111.65h51.35M1686.15,1470h51.35m-51.35-111.65h51.35m-51.35-111.65h51.35m-51.35-112.66h51.35m-51.35-111.65h51.35m-51.35-111.65h51.35M1686.15,798.1h51.35m-51.35-111.65h51.35m-51.35-111.66h51.35m-51.35-112.65h51.35m-51.35-111.66h51.35"/></g><g id="Elements"><g id="Line"><path class="cls-2" d="M1573.53,1636.59h0c-27.28-.2-40.9-19.57-54.06-38.29-13.47-19.16-26.19-37.25-52.45-37.45h-.42c-26,0-38.89,17.81-52.57,36.66-13.38,18.43-27.21,37.48-54.2,37.48h-.43c-27.29-.2-40.9-19.57-54.07-38.29-13.47-19.16-26.19-37.25-52.44-37.45h-.43c-26,0-38.88,17.81-52.56,36.66-13.38,18.43-27.2,37.48-54.2,37.48h-.43c-27.28-.2-40.89-19.57-54.06-38.29-13.47-19.16-26.19-37.25-52.44-37.45s-39.24,17.71-53,36.66c-13.38,18.43-27.21,37.48-54.2,37.48h-.43c-27.28-.2-40.9-19.57-54.06-38.29-13.47-19.16-26.19-37.25-52.44-37.45a1,1,0,0,1-1-1,1,1,0,0,1,1-1h0c27.28.2,40.9,19.57,54.06,38.3,13.47,19.15,26.19,37.25,52.44,37.44h.43c26,0,38.89-17.81,52.57-36.66,13.37-18.43,27.2-37.48,54.19-37.48h.43c27.28.2,40.9,19.57,54.07,38.3,13.46,19.15,26.18,37.25,52.44,37.44s39.24-17.7,53-36.66c13.37-18.43,27.2-37.48,54.2-37.48h.43c27.28.2,40.89,19.57,54.06,38.3,13.47,19.15,26.19,37.25,52.44,37.44h.43c26,0,38.89-17.81,52.57-36.66,13.37-18.43,27.2-37.48,54.2-37.48h.43c27.28.2,40.9,19.57,54.06,38.3,13.47,19.15,26.19,37.25,52.45,37.44a1,1,0,0,1,1,1A1,1,0,0,1,1573.53,1636.59Z"/><path class="cls-3" d="M1553,1670.9h0c-27.28-.2-40.9-19.57-54.06-38.29-13.47-19.16-26.2-37.25-52.45-37.45h-.42c-26,0-38.9,17.81-52.58,36.66-13.37,18.43-27.2,37.48-54.2,37.48h-.43c-27.28-.2-40.89-19.57-54.06-38.29-13.47-19.16-26.19-37.25-52.44-37.45h-.43c-26,0-38.89,17.81-52.56,36.66-13.38,18.43-27.21,37.48-54.2,37.48h-.43c-27.28-.2-40.9-19.57-54.06-38.29-13.47-19.16-26.19-37.25-52.44-37.45s-39.24,17.7-53,36.66c-13.37,18.43-27.2,37.48-54.19,37.48h-.43c-27.28-.2-40.9-19.57-54.07-38.3-13.46-19.15-26.18-37.25-52.44-37.44a1,1,0,0,1,0-2h0c27.28.2,40.89,19.57,54.06,38.3,13.47,19.15,26.19,37.25,52.44,37.44h.43c26,0,38.89-17.81,52.56-36.66,13.45-18.53,27.37-37.66,54.63-37.48s40.9,19.57,54.06,38.3c13.47,19.15,26.19,37.25,52.44,37.44h.43c26,0,38.89-17.81,52.57-36.66,13.37-18.43,27.2-37.48,54.19-37.48h.43c27.29.2,40.9,19.57,54.07,38.3,13.47,19.15,26.19,37.25,52.44,37.44s39.24-17.7,53-36.66c13.37-18.43,27.2-37.48,54.2-37.48h.43c27.28.2,40.89,19.57,54.06,38.3,13.47,19.15,26.19,37.25,52.45,37.44a1,1,0,0,1,0,2Z"/></g><g id="Element_1" data-name="Element 1"><polygon class="cls-4" points="1367.15 346.25 1296.6 555.92 1357.6 563.73 1277.67 759.83 1471.94 512.19 1387.68 505.66 1472.44 364.2 1367.15 346.25"/><polygon class="cls-5" points="1367.15 346.25 1296.6 555.92 1357.6 563.73 1277.67 759.83 1471.94 512.19 1387.68 505.66 1472.44 364.2 1367.15 346.25"/><polygon class="cls-4" points="1366.65 345.75 1296.1 555.42 1357.1 563.23 1277.17 759.33 1471.44 511.69 1387.18 505.16 1471.94 363.7 1366.65 345.75"/><polygon class="cls-5" points="1366.65 345.75 1296.1 555.42 1357.1 563.23 1277.17 759.33 1471.44 511.69 1387.18 505.16 1471.94 363.7 1366.65 345.75"/><polygon class="cls-4" points="1366.15 345.25 1295.6 554.92 1356.6 562.73 1276.67 758.83 1470.94 511.19 1386.68 504.66 1471.44 363.2 1366.15 345.25"/><polygon class="cls-5" points="1366.15 345.25 1295.6 554.92 1356.6 562.73 1276.67 758.83 1470.94 511.19 1386.68 504.66 1471.44 363.2 1366.15 345.25"/><polygon class="cls-4" points="1365.65 344.75 1295.1 554.42 1356.1 562.23 1276.17 758.33 1470.44 510.69 1386.18 504.16 1470.94 362.7 1365.65 344.75"/><polygon class="cls-5" points="1365.65 344.75 1295.1 554.42 1356.1 562.23 1276.17 758.33 1470.44 510.69 1386.18 504.16 1470.94 362.7 1365.65 344.75"/><polygon class="cls-4" points="1365.15 344.25 1294.6 553.92 1355.6 561.73 1275.67 757.83 1469.94 510.19 1385.68 503.66 1470.44 362.2 1365.15 344.25"/><polygon class="cls-5" points="1365.15 344.25 1294.6 553.92 1355.6 561.73 1275.67 757.83 1469.94 510.19 1385.68 503.66 1470.44 362.2 1365.15 344.25"/><polygon class="cls-4" points="1364.65 343.75 1294.1 553.42 1355.1 561.23 1275.17 757.33 1469.44 509.69 1385.18 503.16 1469.94 361.7 1364.65 343.75"/><polygon class="cls-5" points="1364.65 343.75 1294.1 553.42 1355.1 561.23 1275.17 757.33 1469.44 509.69 1385.18 503.16 1469.94 361.7 1364.65 343.75"/><polygon class="cls-4" points="1364.15 343.25 1293.6 552.92 1354.6 560.73 1274.67 756.83 1468.94 509.19 1384.68 502.66 1469.44 361.2 1364.15 343.25"/><polygon class="cls-5" points="1364.15 343.25 1293.6 552.92 1354.6 560.73 1274.67 756.83 1468.94 509.19 1384.68 502.66 1469.44 361.2 1364.15 343.25"/><polygon class="cls-4" points="1363.65 342.75 1293.1 552.42 1354.1 560.23 1274.17 756.33 1468.44 508.69 1384.18 502.16 1468.94 360.7 1363.65 342.75"/><polygon class="cls-5" points="1363.65 342.75 1293.1 552.42 1354.1 560.23 1274.17 756.33 1468.44 508.69 1384.18 502.16 1468.94 360.7 1363.65 342.75"/><polygon class="cls-4" points="1363.15 342.25 1292.6 551.92 1353.6 559.73 1273.67 755.83 1467.94 508.19 1383.68 501.66 1468.44 360.2 1363.15 342.25"/><polygon class="cls-5" points="1363.15 342.25 1292.6 551.92 1353.6 559.73 1273.67 755.83 1467.94 508.19 1383.68 501.66 1468.44 360.2 1363.15 342.25"/><polygon class="cls-4" points="1362.65 341.75 1292.1 551.42 1353.1 559.23 1273.17 755.33 1467.44 507.69 1383.18 501.16 1467.94 359.7 1362.65 341.75"/><polygon class="cls-5" points="1362.65 341.75 1292.1 551.42 1353.1 559.23 1273.17 755.33 1467.44 507.69 1383.18 501.16 1467.94 359.7 1362.65 341.75"/><polygon class="cls-4" points="1362.15 341.25 1291.6 550.92 1352.6 558.73 1272.67 754.83 1466.94 507.19 1382.68 500.66 1467.44 359.2 1362.15 341.25"/><polygon class="cls-5" points="1362.15 341.25 1291.6 550.92 1352.6 558.73 1272.67 754.83 1466.94 507.19 1382.68 500.66 1467.44 359.2 1362.15 341.25"/><polygon class="cls-4" points="1361.65 340.75 1291.1 550.42 1352.1 558.23 1272.17 754.33 1466.44 506.69 1382.18 500.16 1466.94 358.7 1361.65 340.75"/><polygon class="cls-5" points="1361.65 340.75 1291.1 550.42 1352.1 558.23 1272.17 754.33 1466.44 506.69 1382.18 500.16 1466.94 358.7 1361.65 340.75"/><polygon class="cls-4" points="1361.15 340.25 1290.6 549.92 1351.6 557.73 1271.67 753.83 1465.94 506.19 1381.68 499.66 1466.44 358.2 1361.15 340.25"/><polygon class="cls-5" points="1361.15 340.25 1290.6 549.92 1351.6 557.73 1271.67 753.83 1465.94 506.19 1381.68 499.66 1466.44 358.2 1361.15 340.25"/><polygon class="cls-4" points="1360.65 339.75 1290.1 549.42 1351.1 557.23 1271.17 753.33 1465.44 505.69 1381.18 499.16 1465.94 357.7 1360.65 339.75"/><polygon class="cls-5" points="1360.65 339.75 1290.1 549.42 1351.1 557.23 1271.17 753.33 1465.44 505.69 1381.18 499.16 1465.94 357.7 1360.65 339.75"/><polygon class="cls-4" points="1360.15 339.25 1289.6 548.92 1350.6 556.73 1270.67 752.83 1464.94 505.19 1380.68 498.66 1465.44 357.2 1360.15 339.25"/><polygon class="cls-5" points="1360.15 339.25 1289.6 548.92 1350.6 556.73 1270.67 752.83 1464.94 505.19 1380.68 498.66 1465.44 357.2 1360.15 339.25"/><polygon class="cls-4" points="1359.65 338.75 1289.1 548.42 1350.1 556.23 1270.17 752.33 1464.44 504.69 1380.18 498.16 1464.94 356.7 1359.65 338.75"/><polygon class="cls-5" points="1359.65 338.75 1289.1 548.42 1350.1 556.23 1270.17 752.33 1464.44 504.69 1380.18 498.16 1464.94 356.7 1359.65 338.75"/><polygon class="cls-4" points="1359.15 338.25 1288.6 547.92 1349.6 555.73 1269.67 751.83 1463.94 504.19 1379.68 497.66 1464.44 356.2 1359.15 338.25"/><polygon class="cls-5" points="1359.15 338.25 1288.6 547.92 1349.6 555.73 1269.67 751.83 1463.94 504.19 1379.68 497.66 1464.44 356.2 1359.15 338.25"/><polygon class="cls-4" points="1358.65 337.75 1288.1 547.42 1349.1 555.23 1269.17 751.33 1463.44 503.69 1379.18 497.16 1463.94 355.7 1358.65 337.75"/><polygon class="cls-5" points="1358.65 337.75 1288.1 547.42 1349.1 555.23 1269.17 751.33 1463.44 503.69 1379.18 497.16 1463.94 355.7 1358.65 337.75"/><polygon class="cls-4" points="1358.15 337.25 1287.6 546.92 1348.6 554.73 1268.67 750.83 1462.94 503.19 1378.68 496.66 1463.44 355.2 1358.15 337.25"/><polygon class="cls-5" points="1358.15 337.25 1287.6 546.92 1348.6 554.73 1268.67 750.83 1462.94 503.19 1378.68 496.66 1463.44 355.2 1358.15 337.25"/><polygon class="cls-4" points="1357.65 336.75 1287.1 546.42 1348.1 554.23 1268.17 750.33 1462.44 502.69 1378.18 496.16 1462.94 354.7 1357.65 336.75"/><polygon class="cls-5" points="1357.65 336.75 1287.1 546.42 1348.1 554.23 1268.17 750.33 1462.44 502.69 1378.18 496.16 1462.94 354.7 1357.65 336.75"/><polygon class="cls-4" points="1357.15 336.25 1286.6 545.92 1347.6 553.73 1267.67 749.83 1461.94 502.19 1377.68 495.66 1462.44 354.2 1357.15 336.25"/><polygon class="cls-5" points="1357.15 336.25 1286.6 545.92 1347.6 553.73 1267.67 749.83 1461.94 502.19 1377.68 495.66 1462.44 354.2 1357.15 336.25"/><polygon class="cls-4" points="1356.65 335.75 1286.1 545.42 1347.1 553.23 1267.17 749.33 1461.44 501.69 1377.18 495.16 1461.94 353.7 1356.65 335.75"/><polygon class="cls-5" points="1356.65 335.75 1286.1 545.42 1347.1 553.23 1267.17 749.33 1461.44 501.69 1377.18 495.16 1461.94 353.7 1356.65 335.75"/><polygon class="cls-4" points="1356.15 335.25 1285.6 544.92 1346.6 552.73 1266.67 748.83 1460.94 501.19 1376.68 494.66 1461.44 353.2 1356.15 335.25"/><polygon class="cls-5" points="1356.15 335.25 1285.6 544.92 1346.6 552.73 1266.67 748.83 1460.94 501.19 1376.68 494.66 1461.44 353.2 1356.15 335.25"/><polygon class="cls-4" points="1355.65 334.75 1285.1 544.42 1346.1 552.23 1266.17 748.33 1460.44 500.69 1376.18 494.16 1460.94 352.7 1355.65 334.75"/><polygon class="cls-5" points="1355.65 334.75 1285.1 544.42 1346.1 552.23 1266.17 748.33 1460.44 500.69 1376.18 494.16 1460.94 352.7 1355.65 334.75"/><polygon class="cls-4" points="1355.15 334.25 1284.6 543.92 1345.6 551.73 1265.67 747.83 1459.94 500.19 1375.68 493.66 1460.44 352.2 1355.15 334.25"/><polygon class="cls-5" points="1355.15 334.25 1284.6 543.92 1345.6 551.73 1265.67 747.83 1459.94 500.19 1375.68 493.66 1460.44 352.2 1355.15 334.25"/><polygon class="cls-4" points="1354.65 333.75 1284.1 543.42 1345.1 551.23 1265.17 747.33 1459.44 499.69 1375.18 493.16 1459.94 351.7 1354.65 333.75"/><polygon class="cls-5" points="1354.65 333.75 1284.1 543.42 1345.1 551.23 1265.17 747.33 1459.44 499.69 1375.18 493.16 1459.94 351.7 1354.65 333.75"/><polygon class="cls-4" points="1354.15 333.25 1283.6 542.92 1344.6 550.73 1264.67 746.83 1458.94 499.19 1374.68 492.66 1459.44 351.2 1354.15 333.25"/><polygon class="cls-5" points="1354.15 333.25 1283.6 542.92 1344.6 550.73 1264.67 746.83 1458.94 499.19 1374.68 492.66 1459.44 351.2 1354.15 333.25"/><polygon class="cls-4" points="1353.65 332.75 1283.1 542.42 1344.1 550.23 1264.17 746.33 1458.44 498.69 1374.18 492.16 1458.94 350.7 1353.65 332.75"/><polygon class="cls-5" points="1353.65 332.75 1283.1 542.42 1344.1 550.23 1264.17 746.33 1458.44 498.69 1374.18 492.16 1458.94 350.7 1353.65 332.75"/><polygon class="cls-4" points="1353.15 332.25 1282.6 541.92 1343.6 549.73 1263.67 745.83 1457.94 498.19 1373.68 491.66 1458.44 350.2 1353.15 332.25"/><polygon class="cls-5" points="1353.15 332.25 1282.6 541.92 1343.6 549.73 1263.67 745.83 1457.94 498.19 1373.68 491.66 1458.44 350.2 1353.15 332.25"/><polygon class="cls-4" points="1352.65 331.75 1282.1 541.42 1343.1 549.23 1263.17 745.33 1457.44 497.69 1373.18 491.16 1457.94 349.7 1352.65 331.75"/><polygon class="cls-5" points="1352.65 331.75 1282.1 541.42 1343.1 549.23 1263.17 745.33 1457.44 497.69 1373.18 491.16 1457.94 349.7 1352.65 331.75"/><polygon class="cls-4" points="1352.15 331.25 1281.6 540.92 1342.6 548.73 1262.67 744.83 1456.94 497.19 1372.68 490.66 1457.44 349.2 1352.15 331.25"/><polygon class="cls-5" points="1352.15 331.25 1281.6 540.92 1342.6 548.73 1262.67 744.83 1456.94 497.19 1372.68 490.66 1457.44 349.2 1352.15 331.25"/><polygon class="cls-4" points="1351.65 330.75 1281.1 540.42 1342.1 548.23 1262.17 744.33 1456.44 496.69 1372.18 490.16 1456.94 348.7 1351.65 330.75"/><polygon class="cls-5" points="1351.65 330.75 1281.1 540.42 1342.1 548.23 1262.17 744.33 1456.44 496.69 1372.18 490.16 1456.94 348.7 1351.65 330.75"/><polygon class="cls-4" points="1351.15 330.25 1280.6 539.92 1341.6 547.73 1261.67 743.83 1455.94 496.19 1371.68 489.66 1456.44 348.2 1351.15 330.25"/><polygon class="cls-5" points="1351.15 330.25 1280.6 539.92 1341.6 547.73 1261.67 743.83 1455.94 496.19 1371.68 489.66 1456.44 348.2 1351.15 330.25"/><polygon class="cls-4" points="1350.65 329.75 1280.1 539.42 1341.1 547.23 1261.17 743.33 1455.44 495.69 1371.18 489.16 1455.94 347.7 1350.65 329.75"/><polygon class="cls-5" points="1350.65 329.75 1280.1 539.42 1341.1 547.23 1261.17 743.33 1455.44 495.69 1371.18 489.16 1455.94 347.7 1350.65 329.75"/><polygon class="cls-4" points="1350.15 329.25 1279.6 538.92 1340.6 546.73 1260.67 742.83 1454.94 495.19 1370.68 488.66 1455.44 347.2 1350.15 329.25"/><polygon class="cls-5" points="1350.15 329.25 1279.6 538.92 1340.6 546.73 1260.67 742.83 1454.94 495.19 1370.68 488.66 1455.44 347.2 1350.15 329.25"/><polygon class="cls-4" points="1349.65 328.75 1279.1 538.42 1340.1 546.23 1260.17 742.33 1454.44 494.69 1370.18 488.16 1454.94 346.7 1349.65 328.75"/><polygon class="cls-5" points="1349.65 328.75 1279.1 538.42 1340.1 546.23 1260.17 742.33 1454.44 494.69 1370.18 488.16 1454.94 346.7 1349.65 328.75"/><polygon class="cls-4" points="1349.15 328.25 1278.6 537.92 1339.6 545.73 1259.67 741.83 1453.94 494.19 1369.68 487.66 1454.44 346.2 1349.15 328.25"/><polygon class="cls-5" points="1349.15 328.25 1278.6 537.92 1339.6 545.73 1259.67 741.83 1453.94 494.19 1369.68 487.66 1454.44 346.2 1349.15 328.25"/><polygon class="cls-4" points="1348.65 327.75 1278.1 537.42 1339.1 545.23 1259.17 741.33 1453.44 493.69 1369.18 487.16 1453.94 345.7 1348.65 327.75"/><polygon class="cls-5" points="1348.65 327.75 1278.1 537.42 1339.1 545.23 1259.17 741.33 1453.44 493.69 1369.18 487.16 1453.94 345.7 1348.65 327.75"/><polygon class="cls-4" points="1348.15 327.25 1277.6 536.92 1338.6 544.73 1258.67 740.83 1452.94 493.19 1368.68 486.66 1453.44 345.2 1348.15 327.25"/><polygon class="cls-5" points="1348.15 327.25 1277.6 536.92 1338.6 544.73 1258.67 740.83 1452.94 493.19 1368.68 486.66 1453.44 345.2 1348.15 327.25"/><polygon class="cls-4" points="1347.65 326.75 1277.1 536.42 1338.1 544.23 1258.17 740.33 1452.44 492.69 1368.18 486.16 1452.94 344.7 1347.65 326.75"/><polygon class="cls-5" points="1347.65 326.75 1277.1 536.42 1338.1 544.23 1258.17 740.33 1452.44 492.69 1368.18 486.16 1452.94 344.7 1347.65 326.75"/><polygon class="cls-4" points="1347.15 326.25 1276.6 535.92 1337.6 543.73 1257.67 739.83 1451.94 492.19 1367.68 485.66 1452.44 344.2 1347.15 326.25"/><polygon class="cls-5" points="1347.15 326.25 1276.6 535.92 1337.6 543.73 1257.67 739.83 1451.94 492.19 1367.68 485.66 1452.44 344.2 1347.15 326.25"/><polygon class="cls-4" points="1346.65 325.75 1276.1 535.42 1337.1 543.23 1257.17 739.33 1451.44 491.69 1367.18 485.16 1451.94 343.7 1346.65 325.75"/><polygon class="cls-5" points="1346.65 325.75 1276.1 535.42 1337.1 543.23 1257.17 739.33 1451.44 491.69 1367.18 485.16 1451.94 343.7 1346.65 325.75"/><polygon class="cls-4" points="1346.15 325.25 1275.6 534.92 1336.6 542.73 1256.67 738.83 1450.94 491.19 1366.68 484.66 1451.44 343.2 1346.15 325.25"/><polygon class="cls-5" points="1346.15 325.25 1275.6 534.92 1336.6 542.73 1256.67 738.83 1450.94 491.19 1366.68 484.66 1451.44 343.2 1346.15 325.25"/><polygon class="cls-4" points="1345.65 324.75 1275.1 534.42 1336.1 542.23 1256.17 738.33 1450.44 490.69 1366.18 484.16 1450.94 342.7 1345.65 324.75"/><polygon class="cls-5" points="1345.65 324.75 1275.1 534.42 1336.1 542.23 1256.17 738.33 1450.44 490.69 1366.18 484.16 1450.94 342.7 1345.65 324.75"/><polygon class="cls-4" points="1345.15 324.25 1274.6 533.92 1335.6 541.73 1255.67 737.83 1449.94 490.19 1365.68 483.66 1450.44 342.2 1345.15 324.25"/><polygon class="cls-5" points="1345.15 324.25 1274.6 533.92 1335.6 541.73 1255.67 737.83 1449.94 490.19 1365.68 483.66 1450.44 342.2 1345.15 324.25"/><polygon class="cls-4" points="1344.65 323.75 1274.1 533.42 1335.1 541.23 1255.17 737.33 1449.44 489.69 1365.18 483.16 1449.94 341.7 1344.65 323.75"/><polygon class="cls-5" points="1344.65 323.75 1274.1 533.42 1335.1 541.23 1255.17 737.33 1449.44 489.69 1365.18 483.16 1449.94 341.7 1344.65 323.75"/><polygon class="cls-4" points="1344.15 323.25 1273.6 532.92 1334.6 540.73 1254.67 736.83 1448.94 489.19 1364.68 482.66 1449.44 341.2 1344.15 323.25"/><polygon class="cls-5" points="1344.15 323.25 1273.6 532.92 1334.6 540.73 1254.67 736.83 1448.94 489.19 1364.68 482.66 1449.44 341.2 1344.15 323.25"/><polygon class="cls-4" points="1343.65 322.75 1273.1 532.42 1334.1 540.23 1254.17 736.33 1448.44 488.69 1364.18 482.16 1448.94 340.7 1343.65 322.75"/><polygon class="cls-5" points="1343.65 322.75 1273.1 532.42 1334.1 540.23 1254.17 736.33 1448.44 488.69 1364.18 482.16 1448.94 340.7 1343.65 322.75"/><polygon class="cls-4" points="1343.15 322.25 1272.6 531.92 1333.6 539.73 1253.67 735.83 1447.94 488.19 1363.68 481.66 1448.44 340.2 1343.15 322.25"/><polygon class="cls-5" points="1343.15 322.25 1272.6 531.92 1333.6 539.73 1253.67 735.83 1447.94 488.19 1363.68 481.66 1448.44 340.2 1343.15 322.25"/><polygon class="cls-4" points="1342.65 321.75 1272.1 531.42 1333.1 539.23 1253.17 735.33 1447.44 487.69 1363.18 481.16 1447.94 339.7 1342.65 321.75"/><polygon class="cls-5" points="1342.65 321.75 1272.1 531.42 1333.1 539.23 1253.17 735.33 1447.44 487.69 1363.18 481.16 1447.94 339.7 1342.65 321.75"/><polygon class="cls-4" points="1342.15 321.25 1271.6 530.92 1332.6 538.73 1252.67 734.83 1446.94 487.19 1362.68 480.66 1447.44 339.2 1342.15 321.25"/><polygon class="cls-5" points="1342.15 321.25 1271.6 530.92 1332.6 538.73 1252.67 734.83 1446.94 487.19 1362.68 480.66 1447.44 339.2 1342.15 321.25"/></g></g><g id="Text_Placeholder" data-name="Text Placeholder"><text class="cls-6" transform="translate(51.88 504.5) rotate(2.41) scale(0.95 1)">小王</text><text class="cls-6" transform="translate(51.38 504) rotate(2.41) scale(0.95 1)">小王</text><text class="cls-6" transform="translate(50.88 503.5) rotate(2.41) scale(0.95 1)">小王</text><text class="cls-6" transform="translate(50.38 503) rotate(2.41) scale(0.95 1)">小王</text><text class="cls-6" transform="translate(49.88 502.5) rotate(2.41) scale(0.95 1)">小王</text><text class="cls-6" transform="translate(49.38 502) rotate(2.41) scale(0.95 1)">小王</text><text class="cls-6" transform="translate(48.88 501.5) rotate(2.41) scale(0.95 1)">小王</text><text class="cls-6" transform="translate(48.38 501) rotate(2.41) scale(0.95 1)">小王</text><text class="cls-6" transform="translate(47.88 500.5) rotate(2.41) scale(0.95 1)">小王</text><text class="cls-6" transform="translate(47.38 500) rotate(2.41) scale(0.95 1)">小王</text><text class="cls-6" transform="translate(46.88 499.5) rotate(2.41) scale(0.95 1)">小王</text><text class="cls-6" transform="translate(46.38 499) rotate(2.41) scale(0.95 1)">小王</text><text class="cls-6" transform="translate(45.88 498.5) rotate(2.41) scale(0.95 1)">小王</text><text class="cls-6" transform="translate(45.38 498) rotate(2.41) scale(0.95 1)">小王</text><text class="cls-6" transform="translate(44.88 497.5) rotate(2.41) scale(0.95 1)">小王</text><text class="cls-6" transform="translate(44.38 497) rotate(2.41) scale(0.95 1)">小王</text><text class="cls-6" transform="translate(43.88 496.5) rotate(2.41) scale(0.95 1)">小王</text><text class="cls-6" transform="translate(43.38 496) rotate(2.41) scale(0.95 1)">小王</text><text class="cls-6" transform="translate(42.88 495.5) rotate(2.41) scale(0.95 1)">小王</text><text class="cls-6" transform="translate(42.38 495) rotate(2.41) scale(0.95 1)">小王</text><text class="cls-6" transform="translate(41.88 494.5) rotate(2.41) scale(0.95 1)">小王</text><text class="cls-6" transform="translate(41.38 494) rotate(2.41) scale(0.95 1)">小王</text><text class="cls-6" transform="translate(40.88 493.5) rotate(2.41) scale(0.95 1)">小王</text><text class="cls-6" transform="translate(40.38 493) rotate(2.41) scale(0.95 1)">小王</text><text class="cls-6" transform="translate(39.88 492.5) rotate(2.41) scale(0.95 1)">小王</text><text class="cls-6" transform="translate(39.38 492) rotate(2.41) scale(0.95 1)">小王</text><text class="cls-6" transform="translate(38.88 491.5) rotate(2.41) scale(0.95 1)">小王</text><text class="cls-6" transform="translate(38.38 491) rotate(2.41) scale(0.95 1)">小王</text><text class="cls-6" transform="translate(37.88 490.5) rotate(2.41) scale(0.95 1)">小王</text><text class="cls-6" transform="translate(37.38 490) rotate(2.41) scale(0.95 1)">小王</text><text class="cls-6" transform="translate(36.88 489.5) rotate(2.41) scale(0.95 1)">小王</text><text class="cls-6" transform="translate(36.38 489) rotate(2.41) scale(0.95 1)">小王</text><text class="cls-6" transform="translate(35.88 488.5) rotate(2.41) scale(0.95 1)">小王</text><text class="cls-6" transform="translate(35.38 488) rotate(2.41) scale(0.95 1)">小王</text><text class="cls-6" transform="translate(34.88 487.5) rotate(2.41) scale(0.95 1)">小王</text><text class="cls-6" transform="translate(34.38 487) rotate(2.41) scale(0.95 1)">小王</text><text class="cls-6" transform="translate(33.88 486.5) rotate(2.41) scale(0.95 1)">小王</text><text class="cls-6" transform="translate(33.38 486) rotate(2.41) scale(0.95 1)">小王</text><text class="cls-6" transform="translate(32.88 485.5) rotate(2.41) scale(0.95 1)">小王</text><text class="cls-6" transform="translate(32.38 485) rotate(2.41) scale(0.95 1)">小王</text><text class="cls-6" transform="translate(31.88 484.5) rotate(2.41) scale(0.95 1)">小王</text><text class="cls-6" transform="translate(31.38 484) rotate(2.41) scale(0.95 1)">小王</text><text class="cls-6" transform="translate(30.88 483.5) rotate(2.41) scale(0.95 1)">小王</text><text class="cls-6" transform="translate(30.38 483) rotate(2.41) scale(0.95 1)">小王</text><text class="cls-6" transform="translate(29.88 482.5) rotate(2.41) scale(0.95 1)">小王</text><text class="cls-6" transform="translate(29.38 482) rotate(2.41) scale(0.95 1)">小王</text><text class="cls-6" transform="translate(28.88 481.5) rotate(2.41) scale(0.95 1)">小王</text><text class="cls-6" transform="translate(28.38 481) rotate(2.41) scale(0.95 1)">小王</text><text class="cls-6" transform="translate(27.88 480.5) rotate(2.41) scale(0.95 1)">小王</text><text class="cls-6" transform="translate(27.38 480) rotate(2.41) scale(0.95 1)">小王</text><text class="cls-6" transform="translate(26.88 479.5) rotate(2.41) scale(0.95 1)">小王</text><text class="cls-7" transform="translate(786.26 1305.93) scale(0.99 1)">小 黄</text><text class="cls-7" transform="translate(785.76 1305.43) scale(0.99 1)">小 黄</text><text class="cls-7" transform="translate(785.26 1304.93) scale(0.99 1)">小 黄</text><text class="cls-7" transform="translate(784.76 1304.43) scale(0.99 1)">小 黄</text><text class="cls-7" transform="translate(784.26 1303.93) scale(0.99 1)">小 黄</text><text class="cls-7" transform="translate(783.76 1303.43) scale(0.99 1)">小 黄</text><text class="cls-7" transform="translate(783.26 1302.93) scale(0.99 1)">小 黄</text><text class="cls-7" transform="translate(782.76 1302.43) scale(0.99 1)">小 黄</text><text class="cls-7" transform="translate(782.26 1301.93) scale(0.99 1)">小 黄</text><text class="cls-7" transform="translate(781.76 1301.43) scale(0.99 1)">小 黄</text><text class="cls-7" transform="translate(781.26 1300.93) scale(0.99 1)">小 黄</text><text class="cls-7" transform="translate(780.76 1300.43) scale(0.99 1)">小 黄</text><text class="cls-7" transform="translate(780.26 1299.93) scale(0.99 1)">小 黄</text><text class="cls-7" transform="translate(779.76 1299.43) scale(0.99 1)">小 黄</text><text class="cls-7" transform="translate(779.26 1298.93) scale(0.99 1)">小 黄</text><text class="cls-7" transform="translate(778.76 1298.43) scale(0.99 1)">小 黄</text><text class="cls-7" transform="translate(778.26 1297.93) scale(0.99 1)">小 黄</text><text class="cls-7" transform="translate(777.76 1297.43) scale(0.99 1)">小 黄</text><text class="cls-7" transform="translate(777.26 1296.93) scale(0.99 1)">小 黄</text><text class="cls-7" transform="translate(776.76 1296.43) scale(0.99 1)">小 黄</text><text class="cls-7" transform="translate(776.26 1295.93) scale(0.99 1)">小 黄</text><text class="cls-7" transform="translate(775.76 1295.43) scale(0.99 1)">小 黄</text><text class="cls-7" transform="translate(775.26 1294.93) scale(0.99 1)">小 黄</text><text class="cls-7" transform="translate(774.76 1294.43) scale(0.99 1)">小 黄</text><text class="cls-7" transform="translate(774.26 1293.93) scale(0.99 1)">小 黄</text><text class="cls-7" transform="translate(773.76 1293.43) scale(0.99 1)">小 黄</text><text class="cls-7" transform="translate(773.26 1292.93) scale(0.99 1)">小 黄</text><text class="cls-7" transform="translate(772.76 1292.43) scale(0.99 1)">小 黄</text><text class="cls-7" transform="translate(772.26 1291.93) scale(0.99 1)">小 黄</text><text class="cls-7" transform="translate(771.76 1291.43) scale(0.99 1)">小 黄</text><text class="cls-7" transform="translate(771.26 1290.93) scale(0.99 1)">小 黄</text><text class="cls-7" transform="translate(770.76 1290.43) scale(0.99 1)">小 黄</text><text class="cls-7" transform="translate(770.26 1289.93) scale(0.99 1)">小 黄</text><text class="cls-7" transform="translate(769.76 1289.43) scale(0.99 1)">小 黄</text><text class="cls-7" transform="translate(769.26 1288.93) scale(0.99 1)">小 黄</text><text class="cls-7" transform="translate(768.76 1288.43) scale(0.99 1)">小 黄</text><text class="cls-7" transform="translate(768.26 1287.93) scale(0.99 1)">小 黄</text><text class="cls-7" transform="translate(767.76 1287.43) scale(0.99 1)">小 黄</text><text class="cls-7" transform="translate(767.26 1286.93) scale(0.99 1)">小 黄</text><text class="cls-7" transform="translate(766.76 1286.43) scale(0.99 1)">小 黄</text><text class="cls-7" transform="translate(766.26 1285.93) scale(0.99 1)">小 黄</text><text class="cls-7" transform="translate(765.76 1285.43) scale(0.99 1)">小 黄</text><text class="cls-7" transform="translate(765.26 1284.93) scale(0.99 1)">小 黄</text><text class="cls-7" transform="translate(764.76 1284.43) scale(0.99 1)">小 黄</text><text class="cls-7" transform="translate(764.26 1283.93) scale(0.99 1)">小 黄</text><text class="cls-7" transform="translate(763.76 1283.43) scale(0.99 1)">小 黄</text><text class="cls-7" transform="translate(763.26 1282.93) scale(0.99 1)">小 黄</text><text class="cls-7" transform="translate(762.76 1282.43) scale(0.99 1)">小 黄</text><text class="cls-7" transform="translate(762.26 1281.93) scale(0.99 1)">小 黄</text><text class="cls-7" transform="translate(761.76 1281.43) scale(0.99 1)">小 黄</text><text class="cls-7" transform="translate(761.26 1280.93) scale(0.99 1)">小 黄</text><text class="cls-8" transform="translate(1.05 1812.68) scale(1.04 1)">两个人的世界，只有我和你</text></g><g id="Elements_1" data-name="Elements 1"><path id="Polystar_1" data-name="Polystar 1" class="cls-9" d="M266.06,897.79s-.29-51.82-26.14-80.71-75.42-32.8-75.42-32.8,49.74-.59,77.61-27.67S274,677.84,274,677.84s.29,51.83,26.13,80.72,75.43,32.8,75.43,32.8S325.82,791.94,298,819,266.06,897.79,266.06,897.79Z"/><path id="Polystar_1-2" data-name="Polystar 1" class="cls-9" d="M1589.07,1134s-.24-26.92-14.8-42-42.4-17.15-42.4-17.15,27.93-.23,43.54-14.25,17.8-40.86,17.8-40.86.23,26.91,14.79,42,42.4,17.15,42.4,17.15-27.93.23-43.54,14.26S1589.07,1134,1589.07,1134Z"/></g></g></g></svg>