<svg xmlns="http://www.w3.org/2000/svg" viewBox="0 0 582.69 218.83"><defs><style>.cls-1{fill:#fc7da8;}.cls-2{fill:#ffc567;}</style></defs><g id="图层_2" data-name="图层 2"><g id="_ÎÓÈ_1" data-name="—ÎÓÈ_1"><path class="cls-1" d="M131.9,93.64c.37,5.74.76,11.62,3,16.91s6.71,10,12.29,10.73c7.77,1.07,14.85-5.87,17-13.59s.52-15.94-1.08-23.79c5.07,6,7.55,13.78,11.17,20.81s9.2,13.88,16.86,15.13c9.33,1.52,18.4-6.62,20.28-16.09S209.21,84.39,203,77.11,188.57,64.69,180.5,59.67c11.54-4.62,22.76-12.79,26.43-24.91s-3.8-27.83-16.18-28.59c-7.66-.47-14.81,4.73-19,11.32s-6,14.42-7.68,22.08c.65-7.48.67-15.21-1.87-22.26S154.11,4,146.94,2.39c-6-1.34-11.6,1.52-16,5.55-3.26,3-3.92,6.52-3.79,10.87.48,15.86,2,31.76,3,47.6Q131,80,131.9,93.64Z"/><path class="cls-1" d="M226.77,88.31c.89,9.9,2.49,20.67,9.79,27.41,9.09,8.39,23.16,7.24,35.42,5.56,9.1-1.25,19.66-3.52,23.54-11.85,4-8.54-4-21.72-12.43-23.85s-16.33,7.26-25.52,3.06a13.84,13.84,0,0,1-4.26-3.08c-.22-.65-1.35-4.24.6-7.28s5.63-3.46,7.32-3.66c5-.58,7.12,1.76,12.19,3,.72.18,12.88,3.12,18.75-3,3.93-4.13,4.28-11.45,1.88-16.42-5.36-11.07-20.48-16.1-31.4-10.45-2.42,1.26-4.87,3-7.59,2.71-4.67-.52-6.41-7.31-3.57-11s8.17-4.66,12.82-4,9,2.62,13.65,3.42,10,.22,13.08-3.28c3.65-4.08,1.48-10.84.63-13.64A26.12,26.12,0,0,0,283.78,10c-13.09-11.27-39.73-13-52,.49-4.17,4.58-5.62,9.76-6.95,14.52-2.59,9.23-.43,14.86,0,29.85Q225.29,71.62,226.77,88.31Z"/><path class="cls-1" d="M307.22,88.31c.89,9.9,2.49,20.67,9.79,27.41,9.09,8.39,23.16,7.24,35.41,5.56,9.1-1.25,19.66-3.52,23.54-11.85,4-8.54-4-21.72-12.42-23.85S347.2,92.84,338,88.64a14,14,0,0,1-4.27-3.08c-.21-.65-1.35-4.24.61-7.28s5.62-3.46,7.31-3.66c5-.58,7.13,1.76,12.19,3,.73.18,12.88,3.12,18.75-3,3.93-4.13,4.29-11.45,1.88-16.42C369.13,47.14,354,42.11,343.1,47.76c-2.43,1.26-4.88,3-7.59,2.71-4.67-.52-6.41-7.31-3.58-11s8.17-4.66,12.82-4,9,2.62,13.66,3.42,9.95.22,13.08-3.28c3.64-4.08,1.48-10.84.63-13.64A26,26,0,0,0,364.22,10c-13.08-11.27-39.72-13-52,.49-4.17,4.58-5.62,9.76-7,14.52-2.58,9.23-.42,14.86,0,29.85Q305.72,71.62,307.22,88.31Z"/><path class="cls-1" d="M472.11,33c-2.9-15.18-16.64-26.93-31.88-30.62-4.19-1-16.28-5.1-29.09.36a33.9,33.9,0,0,0-15.23,12.41c-2.24,3.44-4.05,7.75-5.16,16.68C389.37,43,391,48,391.68,63.09q.75,17.52,2,35c.52,7.23,1.37,15.07,6.43,20.34,6.3,6.55,17.85,6.5,25,.86s9.92-15.61,8.13-24.45c-1.63-8.08-6.11-17.83,0-23.46,4-3.69,10.29-2.94,15.73-3.7C464.53,65.53,475,48.22,472.11,33ZM442.8,39a11.32,11.32,0,0,1-15.11-1.11A10.9,10.9,0,0,1,428.63,23a11.33,11.33,0,0,1,15.14.74l.35.39A10.92,10.92,0,0,1,442.8,39Z"/><path class="cls-1" d="M375.28,209.59c.77,2.55,1.69,4.53,3.78,5.8,3.87,2.36,8.84.49,9.12.38a11.2,11.2,0,0,0,5.89-5.88,15.43,15.43,0,0,0,1.56-8c-.58-12.51-2.83-21.57-1.86-21.83.57-.16,2,2.83,4.8,8.07a147,147,0,0,0,10.72,17.35c3.43,4.68,5.21,7.05,8.33,9,1.5.91,8.21,5.05,12.65,3.42,6.86-2.51.93-16.06,4.23-41.91,1.84-14.46,5.4-23.53-1-30.72-.66-.74-4.5-5.07-8.77-4.59-5,.56-7.53,7.44-8.14,9.13-1.37,3.77-1.18,6.76-1,10.86,1.06,18.81.76,20,.07,20.24-2,.59-7.15-7.76-13.15-17.56a95.23,95.23,0,0,1-4.94-8.48c-2.07-4.61-2.27-7.1-5.2-10-1.21-1.19-3.21-3.18-6-3.33-3.68-.19-6.48,2.91-7.38,3.91-5.67,6.28-2.26,13.16-3.31,30.89-.2,3.34-.68,9.18-1.33,15.2C373.89,196.34,373.13,202.44,375.28,209.59Z"/><path class="cls-1" d="M105.14,141.1C94,144.58,86.56,156,88.5,166.56c1.88,10.32,16.74,18.55,24.79,19.17,1,.07,3.84.19,5.33,2.26s1.37,6.07-.51,8c-.74.77-2.31,1.78-11.59.12-8.44-1.52-10.4-2.8-13-1.53-3.44,1.65-4.8,5.66-4.34,9.19,1.22,9.22,12.32,15,22.49,15.08,11.44,0,23.11-6,27.3-15.77s-.82-22.4-11.5-26.17c-2.84-1-5.9-1.38-8.75-2.37s-5.61-2.78-6.49-5.44,1.07-6.1,4.12-6.15c3.34-.06,5.33,3.45,8.41,4.64,3.48,1.35,7.76-1.84,9.76-4.62,3.7-5.13.31-11.28-.27-12.34a13.32,13.32,0,0,0-2.63-3.39,27.77,27.77,0,0,0-16.24-7.13A26.26,26.26,0,0,0,105.14,141.1Z"/><path class="cls-1" d="M463.63,143.3a31.17,31.17,0,0,0-17.3,16.57c-2.94,6.82-3.25,14.09-2.94,21.25s1.3,14.64,5.2,21.3A31.67,31.67,0,0,0,469.16,217a39.08,39.08,0,0,0,26.54-4.18,32.41,32.41,0,0,0,14.72-17.3c2.78-7.91.85-18-9.11-21.57-6.73-2.4-15-.86-21.21,2.21-4.33,2.14-8.15,5.17-9.31,8.93s1,8.22,5.79,9.74,11.41-1.2,11.17-5.05c3.25,4.32-2,10.25-8.68,10.76s-12.93-3.25-15.31-7.87-1.56-9.82.32-14.57c2.19-5.55,7-11.46,14.72-12.24,5-.49,10.22,1.31,15,.12,6-1.49,8.32-7.21,6.58-11.69-3.29-8.41-13.81-13.7-25.46-13.29A34.38,34.38,0,0,0,463.63,143.3Z"/><path class="cls-1" d="M168.61,211.37c4.44-4.48,5.23-10.63,5.83-16.66.3-3.07.42-7.56,1.31-16.52.24-2.35.51-4.79,1.22-4.87,1.32-.16,1.71,7.94,7.55,15.15,1.91,2.36,4.95,6.11,8.72,5.89,3-.18,5.14-2.86,8.08-6.75,5.17-6.82,6.46-12.72,8-12.47,1,.17,1.27,2.81,1.46,4.74a121.11,121.11,0,0,1,.51,20.68c-.26,7,2.79,15.44,9.7,16.34,4.39.57,8.65-2.43,10.82-6.29s2.67-8.41,2.91-12.83a138.34,138.34,0,0,0-1.75-30.49c-1.12-6.58-2.88-13.39-7.45-18.25-4.1-4.37-12.09-5-18-2.89-6.46,2.34-7.42,7.45-11.59,7-4.52-.43-4.56-6.54-11-9.75a17.88,17.88,0,0,0-15,.07c-5.39,2.57-7.7,7.41-11.29,17.28a125.83,125.83,0,0,0-6.93,30.45c-.4,4-2.31,9.32-.58,15.71.71,2.65,1.76,6.32,4.88,7.88C160.11,216.91,165.76,214.26,168.61,211.37Z"/><path class="cls-1" d="M245.57,200.18c.59,4,1.24,8.1,3.38,11.51s6.21,6,10.14,5.08c5.25-1.2,7.47-7.36,8.53-12.64a167.91,167.91,0,0,0,2.93-45c-.31-4.46-.93-9.22-3.87-12.61-2.72-3.14-7-4.52-11.2-4.58-2.08,0-4.45-.35-6.78.76-1.31.62-4.9,2.73-6.93,12-1.32,6-1,8.76,1.47,29C243.92,189.2,244.74,194.69,245.57,200.18Z"/><path class="cls-1" d="M338.81,200.18c.6,4,1.24,8.1,3.38,11.51s6.21,6,10.14,5.08c5.25-1.2,7.47-7.36,8.54-12.64a167.91,167.91,0,0,0,2.92-45c-.31-4.46-.93-9.22-3.86-12.61-2.73-3.14-7.05-4.52-11.21-4.58-2.08,0-4.44-.35-6.78.76-1.31.62-4.89,2.73-6.93,12-1.32,6-1,8.76,1.48,29C337.16,189.2,338,194.69,338.81,200.18Z"/><path class="cls-1" d="M281.78,204.91c.12,2.92.29,6,2,8.41,2.55,3.68,7.6,4.43,12.07,4.73,7.36.48,15,.55,21.85-2.08s13-8.53,13.85-15.85-5.09-15.31-12.45-14.9c-5.08.28-10.46,4.05-14.79,1.38-4-2.45-3.55-8.26-2.56-12.82,1.22-5.64,2.58-11.36,2.13-17.11s-3-11.67-8-14.59c-3.56-2.09-9.08-2.3-12.56.44-2.71,2.13-3.38,5.46-3.75,7.77-2.17,13.5.8,19.46,1.44,35Q281.37,195.08,281.78,204.91Z"/><path class="cls-2" d="M501.27,70.21c4.52-6.64,4-15.47,2.17-23.3s-4.67-15.6-4.21-23.62S504.8,6.72,512.77,5.72c8.85-1.12,16.36,7.93,16.93,16.84s-3.76,17.33-8.17,25.08-9.17,15.8-9.6,24.71l27.93-34.07c5.7-7,13.39-14.64,22.15-12.67s12.59,13.6,9.26,22-11.38,13.94-19.45,18A120.35,120.35,0,0,1,523,75.85c-3.78.82-8.69,3-7.85,6.76.75,3.36,5.38,3.8,8.74,3,8.42-1.87,16-6.29,24.1-9.35s17.36-4.7,25.15-1,12.49,14.45,7.41,21.43c-4.18,5.74-12.63,6.43-19.49,4.58S548,95.65,541,94.17s-15.46.25-18.65,6.6a73.36,73.36,0,0,1,38.44,24.52c16,19.83,15.74,41.58,15.63,51.3-.14,12.14-1.66,23.06-9.39,32.59-7.25,8.93-22.14,12.52-30.27,4.4-7.27-7.26-5.75-19.45-1.91-29,6.15-15.24,8.53-17.28,9.25-29.09.27-4.38.88-19.23-9.64-30.93-10-11.15-23.79-12.29-27-12.47"/><path class="cls-1" d="M473,89.75c-7.59,7.19-14.63,18.52-10.49,28.4,4.25,10.12,22,9.43,24.59,9.33,4.35-.17,3.72-1,20.64-5.06,12.1-2.94,13.49-2.8,15-4.88,3.16-4.34.38-13.62-5.18-32.19a104.42,104.42,0,0,0-7.59-18c-2.75-5.12-4.16-7.7-6-8.09-4.61-1-7.7,7.43-20.14,20.18C477.06,86.37,477.25,85.74,473,89.75Z"/><path class="cls-2" d="M81.41,64.66c-4.51-6.64-4-15.47-2.16-23.29s4.67-15.6,4.21-23.62S77.89,1.17,69.92.17C61.07-.94,53.56,8.11,53,17s3.75,17.32,8.17,25.08,9.17,15.8,9.59,24.71L42.82,32.74c-5.69-7-13.38-14.64-22.15-12.67s-12.59,13.59-9.26,22S22.8,56,30.87,60.09A120.15,120.15,0,0,0,59.66,70.31c3.78.82,8.7,3,7.86,6.76-.75,3.36-5.39,3.8-8.75,3.05-8.42-1.88-16-6.29-24.09-9.35s-17.36-4.71-25.16-1S-3,84.21,2.11,91.19c4.18,5.75,12.64,6.44,19.49,4.58s13.1-5.66,20-7.14,15.47.24,18.65,6.59a73.34,73.34,0,0,0-38.43,24.53c-16,19.82-15.75,41.58-15.64,51.3.14,12.14,1.67,23,9.4,32.59,7.24,8.93,22.13,12.52,30.27,4.39,7.26-7.25,5.75-19.44,1.91-29-6.15-15.23-8.54-17.27-9.25-29.08-.27-4.39-.89-19.23,9.64-30.94,10-11.14,23.78-12.28,27-12.47"/><path class="cls-1" d="M109.67,84.21c7.6,7.19,14.63,18.52,10.49,28.39-4.25,10.13-22,9.44-24.59,9.34-4.34-.18-3.71-1-20.63-5.06-12.11-2.94-13.49-2.8-15-4.88-3.15-4.34-.37-13.63,5.19-32.2a103,103,0,0,1,7.59-18c2.74-5.13,4.15-7.7,6-8.1,4.61-1,7.7,7.44,20.14,20.18C105.63,80.83,105.44,80.19,109.67,84.21Z"/></g></g></svg>