<svg xmlns="http://www.w3.org/2000/svg" xmlns:xlink="http://www.w3.org/1999/xlink" viewBox="0 0 188.77 111.53"><defs><style>.cls-1{fill:#f9f5f6;}.cls-2{fill:#f9f5f6;}.cls-3{fill:#f9f5f6;}.cls-4{fill:#f9f5f6;}.cls-5{fill:#f9f5f6;}.cls-6{fill:#f9f5f6;}.cls-7{fill:#f9f5f6;}.cls-8{fill:#f9f5f6;}.cls-9{fill:#f9f5f6;}.cls-10{fill:#f9f5f6;}.cls-11{fill:#f9f5f6;}.cls-12{fill:#f9f5f6;}.cls-13,.cls-50{fill:#f2bed1;}.cls-14{opacity:0.76;}.cls-15{fill:#f2bed1;opacity:0;}.cls-16{fill:#f2bed1;opacity:0.09;}.cls-17{fill:#f2bed1;opacity:0.18;}.cls-18{fill:#f2bed1;opacity:0.27;}.cls-19{fill:#f2bed1;opacity:0.36;}.cls-20{fill:#e9e9ef;opacity:0.45;}.cls-21{fill:#e6e7ed;opacity:0.55;}.cls-22{fill:#e3e4ec;opacity:0.64;}.cls-23{fill:#e0e1ea;opacity:0.73;}.cls-24{fill:#dedee8;opacity:0.82;}.cls-25,.cls-96{fill:#dbdce7;}.cls-25{opacity:0.91;}.cls-26{fill:#d8d9e5;}.cls-27{fill:#f2bed1;opacity:0.07;}.cls-28{fill:#f2bed1;opacity:0.14;}.cls-29{fill:#f2bed1;opacity:0.22;}.cls-30{fill:#f2bed1;opacity:0.29;}.cls-31{fill:#f2bed1;opacity:0.36;}.cls-32{fill:#f2bed1;opacity:0.43;}.cls-33{fill:#f2bed1;opacity:0.5;}.cls-34{fill:#f2bed1;opacity:0.57;}.cls-35{fill:#f2bed1;opacity:0.65;}.cls-36{fill:#f2bed1;opacity:0.72;}.cls-37{fill:#f2bed1;opacity:0.79;}.cls-38,.cls-62,.cls-85{fill:#f2bed1;}.cls-39{fill:url(#Градієнт_без_назви_22);}.cls-40,.cls-52,.cls-64,.cls-75{opacity:0.97;}.cls-40{fill:url(#linear-gradient);}.cls-41,.cls-53,.cls-65,.cls-76{opacity:0.95;}.cls-41{fill:url(#linear-gradient-2);}.cls-42,.cls-54,.cls-66,.cls-77{opacity:0.92;}.cls-42{fill:url(#linear-gradient-3);}.cls-43,.cls-55,.cls-67,.cls-78{opacity:0.9;}.cls-43{fill:url(#linear-gradient-4);}.cls-44,.cls-56,.cls-68,.cls-79{opacity:0.87;}.cls-44{fill:url(#linear-gradient-5);}.cls-45,.cls-57,.cls-69,.cls-80{opacity:0.85;}.cls-45{fill:url(#linear-gradient-6);}.cls-46,.cls-58,.cls-70,.cls-81{opacity:0.82;}.cls-46{fill:url(#linear-gradient-7);}.cls-47,.cls-59,.cls-71,.cls-82{opacity:0.8;}.cls-47{fill:url(#linear-gradient-8);}.cls-48,.cls-60,.cls-72,.cls-83{opacity:0.77;}.cls-48{fill:url(#linear-gradient-9);}.cls-49,.cls-61,.cls-73,.cls-84{opacity:0.75;}.cls-49{fill:url(#linear-gradient-10);}.cls-50{opacity:0.72;}.cls-51{fill:url(#Градієнт_без_назви_22-2);}.cls-52{fill:url(#linear-gradient-11);}.cls-53{fill:url(#linear-gradient-12);}.cls-54{fill:url(#linear-gradient-13);}.cls-55{fill:url(#linear-gradient-14);}.cls-56{fill:url(#linear-gradient-15);}.cls-57{fill:url(#linear-gradient-16);}.cls-58{fill:url(#linear-gradient-17);}.cls-59{fill:url(#linear-gradient-18);}.cls-60{fill:url(#linear-gradient-19);}.cls-61{fill:url(#linear-gradient-20);}.cls-62,.cls-86{opacity:0.71;}.cls-63{fill:url(#Градієнт_без_назви_22-3);}.cls-64{fill:url(#linear-gradient-21);}.cls-65{fill:url(#linear-gradient-22);}.cls-66{fill:url(#linear-gradient-23);}.cls-67{fill:url(#linear-gradient-24);}.cls-68{fill:url(#linear-gradient-25);}.cls-69{fill:url(#linear-gradient-26);}.cls-70{fill:url(#linear-gradient-27);}.cls-71{fill:url(#linear-gradient-28);}.cls-72{fill:url(#linear-gradient-29);}.cls-73{fill:url(#linear-gradient-30);}.cls-74{fill:url(#Градієнт_без_назви_22-4);}.cls-75{fill:url(#linear-gradient-31);}.cls-76{fill:url(#linear-gradient-32);}.cls-77{fill:url(#linear-gradient-33);}.cls-78{fill:url(#linear-gradient-34);}.cls-79{fill:url(#linear-gradient-35);}.cls-80{fill:url(#linear-gradient-36);}.cls-81{fill:url(#linear-gradient-37);}.cls-82{fill:url(#linear-gradient-38);}.cls-83{fill:url(#linear-gradient-39);}.cls-84{fill:url(#linear-gradient-40);}.cls-85{opacity:0.7;}.cls-87{fill:#f9f9fa;}.cls-88{fill:#f5f6f8;}.cls-89{fill:#f2f2f6;}.cls-90{fill:#efeff4;}.cls-91{fill:#ececf2;}.cls-92{fill:#e8e9ef;}.cls-93{fill:#e5e6ed;}.cls-94{fill:#e2e3eb;}.cls-95{fill:#dfdfe9;}</style><linearGradient id="Градієнт_без_назви_22" x1="114.2" y1="76.87" x2="110.01" y2="33.23" gradientUnits="userSpaceOnUse"><stop offset="0.34" stop-color="#cdcfdd"/><stop offset="0.41" stop-color="#cfd0de" stop-opacity="0.97"/><stop offset="0.5" stop-color="#d3d5e1" stop-opacity="0.88"/><stop offset="0.61" stop-color="#dadce6" stop-opacity="0.74"/><stop offset="0.73" stop-color="#e4e5ed" stop-opacity="0.54"/><stop offset="0.87" stop-color="#f1f1f5" stop-opacity="0.29"/><stop offset="1" stop-color="#f2bed1" stop-opacity="0"/></linearGradient><linearGradient id="linear-gradient" x1="113.9" y1="76.45" x2="109.89" y2="34.74" gradientUnits="userSpaceOnUse"><stop offset="0.34" stop-color="#d1d3e0"/><stop offset="0.41" stop-color="#d3d5e1" stop-opacity="0.97"/><stop offset="0.51" stop-color="#d7d9e4" stop-opacity="0.88"/><stop offset="0.63" stop-color="#dee0e9" stop-opacity="0.74"/><stop offset="0.76" stop-color="#e8e9f0" stop-opacity="0.54"/><stop offset="0.9" stop-color="#f5f5f8" stop-opacity="0.29"/><stop offset="1" stop-color="#f2bed1" stop-opacity="0.09"/></linearGradient><linearGradient id="linear-gradient-2" x1="113.59" y1="76.03" x2="109.77" y2="36.24" gradientUnits="userSpaceOnUse"><stop offset="0.34" stop-color="#d6d7e3"/><stop offset="0.42" stop-color="#d8d8e4" stop-opacity="0.97"/><stop offset="0.52" stop-color="#dcdde7" stop-opacity="0.88"/><stop offset="0.65" stop-color="#e3e3ec" stop-opacity="0.74"/><stop offset="0.79" stop-color="#ecedf2" stop-opacity="0.54"/><stop offset="0.94" stop-color="#f9f9fa" stop-opacity="0.29"/><stop offset="1" stop-color="#fefefe" stop-opacity="0.18"/></linearGradient><linearGradient id="linear-gradient-3" x1="113.29" y1="75.62" x2="109.65" y2="37.75" gradientUnits="userSpaceOnUse"><stop offset="0.34" stop-color="#dadbe5"/><stop offset="0.42" stop-color="#dcdde6" stop-opacity="0.97"/><stop offset="0.54" stop-color="#e0e1e9" stop-opacity="0.88"/><stop offset="0.67" stop-color="#e7e8ee" stop-opacity="0.74"/><stop offset="0.83" stop-color="#f1f1f5" stop-opacity="0.54"/><stop offset="0.99" stop-color="#fdfdfe" stop-opacity="0.29"/><stop offset="1" stop-color="#fefefe" stop-opacity="0.27"/></linearGradient><linearGradient id="linear-gradient-4" x1="112.99" y1="75.21" x2="109.54" y2="39.24" gradientUnits="userSpaceOnUse"><stop offset="0.34" stop-color="#dedfe8"/><stop offset="0.43" stop-color="#e0e1e9" stop-opacity="0.97"/><stop offset="0.56" stop-color="#e4e5ec" stop-opacity="0.88"/><stop offset="0.71" stop-color="#ebecf1" stop-opacity="0.74"/><stop offset="0.87" stop-color="#f5f5f8" stop-opacity="0.54"/><stop offset="1" stop-color="#fefefe" stop-opacity="0.36"/></linearGradient><linearGradient id="linear-gradient-5" x1="112.7" y1="74.8" x2="109.42" y2="40.73" gradientUnits="userSpaceOnUse"><stop offset="0.34" stop-color="#e2e3eb"/><stop offset="0.44" stop-color="#e4e5ec" stop-opacity="0.97"/><stop offset="0.58" stop-color="#e8e9ef" stop-opacity="0.88"/><stop offset="0.75" stop-color="#eff0f4" stop-opacity="0.74"/><stop offset="0.93" stop-color="#fafafb" stop-opacity="0.54"/><stop offset="1" stop-color="#fefefe" stop-opacity="0.45"/></linearGradient><linearGradient id="linear-gradient-6" x1="112.41" y1="74.4" x2="109.32" y2="42.21" gradientUnits="userSpaceOnUse"><stop offset="0.34" stop-color="#e7e8ee"/><stop offset="0.45" stop-color="#e9e9ef" stop-opacity="0.97"/><stop offset="0.61" stop-color="#ededf2" stop-opacity="0.88"/><stop offset="0.8" stop-color="#f4f4f7" stop-opacity="0.74"/><stop offset="1" stop-color="#fdfdfd" stop-opacity="0.55"/></linearGradient><linearGradient id="linear-gradient-7" x1="112.13" y1="74" x2="109.21" y2="43.66" gradientUnits="userSpaceOnUse"><stop offset="0.34" stop-color="#ebecf1"/><stop offset="0.47" stop-color="#ededf2" stop-opacity="0.97"/><stop offset="0.65" stop-color="#f2bed1" stop-opacity="0.88"/><stop offset="0.87" stop-color="#f8f8fa" stop-opacity="0.74"/><stop offset="1" stop-color="#fdfdfd" stop-opacity="0.64"/></linearGradient><linearGradient id="linear-gradient-8" x1="111.86" y1="73.62" x2="109.11" y2="45.08" gradientUnits="userSpaceOnUse"><stop offset="0.34" stop-color="#eff0f4"/><stop offset="0.5" stop-color="#f1f1f5" stop-opacity="0.97"/><stop offset="0.72" stop-color="#f5f6f8" stop-opacity="0.88"/><stop offset="0.98" stop-color="#fcfcfd" stop-opacity="0.74"/><stop offset="1" stop-color="#fdfdfd" stop-opacity="0.73"/></linearGradient><linearGradient id="linear-gradient-9" x1="111.6" y1="73.24" x2="109.02" y2="46.46" gradientUnits="userSpaceOnUse"><stop offset="0.34" stop-color="#f2bed1"/><stop offset="0.55" stop-color="#f5f6f7" stop-opacity="0.97"/><stop offset="0.84" stop-color="#fafafb" stop-opacity="0.88"/><stop offset="1" stop-color="#fdfdfd" stop-opacity="0.82"/></linearGradient><linearGradient id="linear-gradient-10" x1="111.35" y1="72.88" x2="108.94" y2="47.78" gradientUnits="userSpaceOnUse"><stop offset="0.34" stop-color="#f8f8f9"/><stop offset="0.67" stop-color="#f9f9fa" stop-opacity="0.97"/><stop offset="1" stop-color="#f2bed1" stop-opacity="0.91"/></linearGradient><linearGradient id="Градієнт_без_назви_22-2" x1="29.55" y1="56.86" x2="26.49" y2="25.09" gradientTransform="translate(5.39 -2.95) rotate(2.12)" xlink:href="#Градієнт_без_назви_22"/><linearGradient id="linear-gradient-11" x1="28.94" y1="56.26" x2="26.03" y2="25.99" gradientTransform="matrix(1, 0.03, -0.03, 1, 5.48, -2.7)" xlink:href="#linear-gradient"/><linearGradient id="linear-gradient-12" x1="29.94" y1="55.6" x2="27.18" y2="26.8" gradientTransform="translate(3.97 -2.41) rotate(1.74)" xlink:href="#linear-gradient-2"/><linearGradient id="linear-gradient-13" x1="29.36" y1="55.04" x2="26.73" y2="27.68" gradientTransform="translate(4.06 -2.15) rotate(1.54)" xlink:href="#linear-gradient-3"/><linearGradient id="linear-gradient-14" x1="28.78" y1="54.49" x2="26.29" y2="28.55" gradientTransform="matrix(1, 0.02, -0.02, 1, 4.16, -1.9)" xlink:href="#linear-gradient-4"/><linearGradient id="linear-gradient-15" x1="29.83" y1="53.89" x2="27.47" y2="29.33" gradientTransform="translate(2.65 -1.6) rotate(1.16)" xlink:href="#linear-gradient-5"/><linearGradient id="linear-gradient-16" x1="29.29" y1="53.38" x2="27.06" y2="30.16" gradientTransform="matrix(1, 0.02, -0.02, 1, 2.74, -1.35)" xlink:href="#linear-gradient-6"/><linearGradient id="linear-gradient-17" x1="30.38" y1="52.83" x2="28.27" y2="30.9" gradientTransform="translate(1.23 -1.06) rotate(0.77)" xlink:href="#linear-gradient-7"/><linearGradient id="linear-gradient-18" x1="29.87" y1="52.38" x2="27.88" y2="31.65" gradientTransform="translate(1.32 -0.8) rotate(0.58)" xlink:href="#linear-gradient-8"/><linearGradient id="linear-gradient-19" x1="29.38" y1="51.98" x2="27.49" y2="32.35" gradientTransform="translate(1.42 -0.55) rotate(0.38)" xlink:href="#linear-gradient-9"/><linearGradient id="linear-gradient-20" x1="30.49" y1="51.59" x2="28.7" y2="32.99" gradientTransform="translate(-0.09 -0.26) rotate(0.19)" xlink:href="#linear-gradient-10"/><linearGradient id="Градієнт_без_назви_22-3" x1="142.75" y1="105.43" x2="138.17" y2="57.75" xlink:href="#Градієнт_без_назви_22"/><linearGradient id="linear-gradient-21" x1="142.57" y1="105" x2="138.19" y2="59.48" xlink:href="#linear-gradient"/><linearGradient id="linear-gradient-22" x1="142.39" y1="104.59" x2="138.21" y2="61.2" xlink:href="#linear-gradient-2"/><linearGradient id="linear-gradient-23" x1="142.2" y1="104.17" x2="138.24" y2="62.93" xlink:href="#linear-gradient-3"/><linearGradient id="linear-gradient-24" x1="142.02" y1="103.76" x2="138.26" y2="64.66" xlink:href="#linear-gradient-4"/><linearGradient id="linear-gradient-25" x1="141.84" y1="103.35" x2="138.29" y2="66.38" xlink:href="#linear-gradient-5"/><linearGradient id="linear-gradient-26" x1="141.66" y1="102.95" x2="138.31" y2="68.11" xlink:href="#linear-gradient-6"/><linearGradient id="linear-gradient-27" x1="141.48" y1="102.56" x2="138.34" y2="69.83" xlink:href="#linear-gradient-7"/><linearGradient id="linear-gradient-28" x1="141.3" y1="102.18" x2="138.36" y2="71.56" xlink:href="#linear-gradient-8"/><linearGradient id="linear-gradient-29" x1="141.12" y1="101.8" x2="138.38" y2="73.28" xlink:href="#linear-gradient-9"/><linearGradient id="linear-gradient-30" x1="140.94" y1="101.44" x2="138.4" y2="75" xlink:href="#linear-gradient-10"/><linearGradient id="Градієнт_без_назви_22-4" x1="14.66" y1="96.41" x2="11.48" y2="63.36" xlink:href="#Градієнт_без_назви_22"/><linearGradient id="linear-gradient-31" x1="14.56" y1="96.09" x2="11.53" y2="64.61" xlink:href="#linear-gradient"/><linearGradient id="linear-gradient-32" x1="14.46" y1="95.78" x2="11.59" y2="65.85" xlink:href="#linear-gradient-2"/><linearGradient id="linear-gradient-33" x1="14.37" y1="95.47" x2="11.64" y2="67.1" xlink:href="#linear-gradient-3"/><linearGradient id="linear-gradient-34" x1="14.27" y1="95.16" x2="11.69" y2="68.35" xlink:href="#linear-gradient-4"/><linearGradient id="linear-gradient-35" x1="14.18" y1="94.85" x2="11.75" y2="69.59" xlink:href="#linear-gradient-5"/><linearGradient id="linear-gradient-36" x1="14.09" y1="94.54" x2="11.81" y2="70.84" xlink:href="#linear-gradient-6"/><linearGradient id="linear-gradient-37" x1="14" y1="94.24" x2="11.87" y2="72.08" xlink:href="#linear-gradient-7"/><linearGradient id="linear-gradient-38" x1="13.91" y1="93.93" x2="11.93" y2="73.33" xlink:href="#linear-gradient-8"/><linearGradient id="linear-gradient-39" x1="13.83" y1="93.62" x2="12" y2="74.57" xlink:href="#linear-gradient-9"/><linearGradient id="linear-gradient-40" x1="13.75" y1="93.32" x2="12.07" y2="75.82" xlink:href="#linear-gradient-10"/></defs><g id="图层_2" data-name="图层 2"><g id="Layer_1" data-name="Layer 1"><path class="cls-1" d="M187.29,28h0a28.28,28.28,0,0,1-1.22,3.71c-4.71,11.41-17.92,6.37-25.27,2.67-1.74-.87-3.95-2-6.28-1.35-6,1.64-7.15,11.57-6.71,21.32.52,11.35,4.57,37.43,2.63,48.63a16.86,16.86,0,0,1-1.29,4.25c-1.53,3-3.64,4.41-5.65,4.3-3.63-.19-7.27-5.53-7.46-16.74-.22-12.83,3.56-34.14,1.33-47.16h0c-.8-4.66-2.37-8.25-5.16-10-6.6-4.16-10.11-2.88-11.83.95,0,0,0,0,0,0a23.51,23.51,0,0,0-1.4,9.09c0,9.38,7.13,20.59,3.47,29.52-3.41,8.32-14.35,7-16-3.42-.7-4.41,1-12,2.76-20.13,1.95-9.19,2.74-18.44-2.74-22.68A8.24,8.24,0,0,0,103,29.06c-3.08-.58-5.47,1.47-7.91,3.35C89.78,36.48,84.53,43,72.87,43,55.8,42.86,52.66,27.89,42.41,27.15a4.61,4.61,0,0,0-3.62,1.56,7.43,7.43,0,0,0-2,3.83c-.55,3.46,1.08,9.29,2.12,14.13.94,4.32,1.1,7.07-.77,9.89-4.2,6.35-16,4-14.95-6.51.46-4.68,4.13-10.54,4.55-15.2s-3.61-9.1-8.54-7.12c-10.18,4.09-4.42,15.7-5,37.46-.44,16.41,3.29,28.28,1.63,33.64-.55,1.75-1.45,3.15-3.57,3.06-1.46-.06-2.53-1.39-3.06-3.07-3-9.54,4.81-43.76,2.06-54.19C8,32.37,4.2,38,2.12,28.9c-4.78-20.9,0-25.27,0-25.27l185.37.27a27.48,27.48,0,0,1,1.11,6.51A57.42,57.42,0,0,1,187.29,28Z"/><path class="cls-2" d="M187,27.71h0a28.13,28.13,0,0,1-1.22,3.7c-4.7,11.39-17.87,6.36-25.21,2.67-1.73-.87-3.94-2-6.26-1.34-6,1.62-7.13,11.54-6.69,21.28.52,11.34,4.56,37.38,2.62,48.56a16.67,16.67,0,0,1-1.28,4.24c-1.53,3-3.64,4.41-5.64,4.31-3.61-.2-7.25-5.54-7.44-16.73-.21-12.8,3.55-34.09,1.33-47.09h0c-.8-4.65-2.36-8.24-5.14-10-6.59-4.17-10.09-2.88-11.8,1v0a23.41,23.41,0,0,0-1.4,9.07c0,9.37,7.11,20.56,3.46,29.47-3.4,8.32-14.31,7-16-3.4-.7-4.41,1-12,2.75-20.11,2-9.18,2.74-18.41-2.73-22.65a8.13,8.13,0,0,0-3.48-1.88c-3.07-.58-5.45,1.46-7.88,3.34-5.25,4.06-10.49,10.61-22.12,10.54-17-.1-20.15-15-30.37-15.79a4.65,4.65,0,0,0-3.62,1.55,7.52,7.52,0,0,0-2,3.83c-.55,3.46,1.07,9.28,2.12,14.11.93,4.31,1.09,7.06-.77,9.88-4.19,6.34-15.95,4-14.92-6.5.47-4.67,4.12-10.53,4.54-15.18s-3.59-9.09-8.52-7.11c-10.15,4.08-4.4,15.67-5,37.41-.44,16.38,3.29,28.23,1.62,33.59-.54,1.75-1.45,3.15-3.56,3.06-1.45-.06-2.52-1.39-3-3.08-3-9.52,4.79-43.69,2-54.1-3.22-12.25-7-6.66-9.09-15.71-4.77-20.88,0-25.24,0-25.24l184.86.27a27.46,27.46,0,0,1,1.11,6.5A57,57,0,0,1,187,27.71Z"/><path class="cls-3" d="M186.62,27.44h0a28.46,28.46,0,0,1-1.21,3.69c-4.69,11.38-17.82,6.35-25.14,2.67-1.73-.87-3.93-2-6.24-1.34-6,1.62-7.12,11.53-6.68,21.25.52,11.32,4.55,37.33,2.62,48.5a16.17,16.17,0,0,1-1.29,4.23c-1.52,3-3.62,4.41-5.62,4.3-3.6-.19-7.23-5.53-7.41-16.7-.22-12.79,3.53-34,1.31-47h0c-.79-4.64-2.34-8.23-5.12-10-6.57-4.16-10.06-2.87-11.77.95v0a23.56,23.56,0,0,0-1.39,9.06c0,9.35,7.09,20.53,3.45,29.43-3.39,8.3-14.27,7-15.93-3.4-.7-4.4,1-12,2.75-20.08,1.94-9.16,2.72-18.39-2.73-22.62a8.31,8.31,0,0,0-3.47-1.88c-3.06-.58-5.43,1.46-7.86,3.34-5.24,4.06-10.46,10.6-22.06,10.53-17-.11-20.1-15-30.29-15.77a4.58,4.58,0,0,0-3.6,1.55,7.5,7.5,0,0,0-2,3.82C36.38,35.44,38,41.25,39,46.07c.93,4.31,1.09,7-.77,9.86-4.18,6.34-15.9,4-14.87-6.48.46-4.67,4.11-10.52,4.53-15.16s-3.59-9.08-8.5-7.1C9.3,31.27,15,42.84,14.45,64.54c-.44,16.37,3.28,28.2,1.62,33.55-.54,1.75-1.45,3.14-3.55,3-1.45-.06-2.52-1.39-3-3.07-3-9.5,4.78-43.63,2-54-3.22-12.23-7-6.64-9.07-15.68-4.75-20.85,0-25.21,0-25.21l184.37.27a27.46,27.46,0,0,1,1.11,6.5A57.44,57.44,0,0,1,186.62,27.44Z"/><path class="cls-4" d="M186.28,27.16h0a27.49,27.49,0,0,1-1.21,3.69c-4.68,11.37-17.78,6.35-25.08,2.67-1.72-.87-3.91-2-6.22-1.34-5.93,1.62-7.1,11.51-6.65,21.22.51,11.31,4.53,37.28,2.6,48.43a16.58,16.58,0,0,1-1.28,4.23c-1.52,3-3.61,4.4-5.6,4.29-3.6-.19-7.21-5.52-7.4-16.68-.22-12.77,3.53-34,1.31-47h0c-.79-4.64-2.34-8.22-5.11-10-6.55-4.15-10-2.86-11.73.95v0a23.54,23.54,0,0,0-1.39,9c0,9.34,7.07,20.51,3.44,29.39-3.38,8.29-14.23,7-15.88-3.4-.7-4.39,1-11.94,2.73-20,1.94-9.15,2.72-18.36-2.72-22.58a8,8,0,0,0-3.46-1.88c-3.05-.58-5.42,1.46-7.84,3.33-5.22,4-10.43,10.59-22,10.52-16.93-.11-20-15-30.2-15.76A4.59,4.59,0,0,0,39,27.89a7.53,7.53,0,0,0-2,3.81c-.55,3.45,1.06,9.26,2.11,14.07.92,4.31,1.08,7-.77,9.85-4.17,6.33-15.86,4-14.83-6.48C24,44.48,27.6,38.64,28,34s-3.58-9.07-8.48-7.1c-10.09,4.08-4.38,15.63-5,37.31-.44,16.34,3.27,28.16,1.61,33.5-.54,1.74-1.44,3.14-3.54,3-1.44-.06-2.5-1.39-3-3.07-2.95-9.49,4.77-43.57,2-53.95-3.21-12.22-7-6.64-9-15.67-4.74-20.82,0-25.17,0-25.17l183.87.27a27.43,27.43,0,0,1,1.11,6.49A57.23,57.23,0,0,1,186.28,27.16Z"/><path class="cls-5" d="M186,26.89h0a27.82,27.82,0,0,1-1.21,3.68c-4.65,11.35-17.72,6.34-25,2.67-1.72-.87-3.9-2-6.21-1.34-5.91,1.62-7.07,11.49-6.63,21.19.51,11.29,4.52,37.23,2.6,48.36a17,17,0,0,1-1.28,4.23c-1.52,3-3.6,4.39-5.59,4.28-3.59-.19-7.19-5.51-7.38-16.65-.21-12.76,3.52-33.95,1.31-46.9h0c-.78-4.63-2.33-8.21-5.09-10-6.53-4.15-10-2.87-11.71.94,0,0,0,0,0,0a23.48,23.48,0,0,0-1.39,9c0,9.33,7.06,20.48,3.44,29.35-3.37,8.28-14.19,7-15.84-3.39-.7-4.39,1-11.93,2.73-20,1.93-9.13,2.71-18.33-2.71-22.55A8.22,8.22,0,0,0,102.51,28c-3-.58-5.4,1.46-7.81,3.34-5.21,4-10.41,10.56-21.94,10.49-16.89-.1-20-15-30.13-15.73a4.56,4.56,0,0,0-3.58,1.55,7.49,7.49,0,0,0-2,3.81c-.55,3.45,1.06,9.25,2.1,14.06.92,4.29,1.08,7-.76,9.83-4.16,6.32-15.82,3.95-14.8-6.47.46-4.65,4.09-10.48,4.51-15.12s-3.57-9-8.46-7.08C9.59,30.71,15.29,42.25,14.71,63.9,14.27,80.21,18,92,16.32,97.35c-.54,1.74-1.44,3.13-3.53,3-1.44-.06-2.5-1.38-3-3.06-2.95-9.48,4.75-43.51,2-53.88-3.2-12.2-7-6.63-9-15.64C-1.95,7,2.77,2.67,2.77,2.67l183.38.27a27.66,27.66,0,0,1,1.1,6.48A57.08,57.08,0,0,1,186,26.89Z"/><path class="cls-6" d="M185.61,26.62h0a27.82,27.82,0,0,1-1.21,3.68c-4.64,11.33-17.67,6.32-24.93,2.65-1.72-.86-3.9-2-6.2-1.33-5.89,1.62-7.05,11.48-6.61,21.16.51,11.28,4.51,37.18,2.59,48.3A16.56,16.56,0,0,1,148,105.3c-1.52,3-3.6,4.39-5.58,4.28-3.57-.19-7.17-5.5-7.36-16.63-.21-12.73,3.51-33.9,1.31-46.83h0c-.78-4.62-2.33-8.2-5.08-9.95-6.51-4.14-10-2.86-11.67.95v0a23.37,23.37,0,0,0-1.39,9c0,9.32,7,20.45,3.43,29.31-3.36,8.27-14.16,7-15.8-3.39-.69-4.38,1-11.91,2.72-20,1.93-9.13,2.71-18.31-2.7-22.53a8.11,8.11,0,0,0-3.45-1.87c-3-.58-5.39,1.46-7.79,3.33-5.2,4-10.38,10.55-21.88,10.48-16.84-.11-19.94-15-30-15.71a4.56,4.56,0,0,0-3.58,1.55,7.48,7.48,0,0,0-2,3.8c-.55,3.44,1.06,9.23,2.09,14,.93,4.29,1.08,7-.76,9.82-4.15,6.31-15.77,3.94-14.75-6.46.46-4.65,4.07-10.47,4.49-15.1s-3.56-9-8.43-7.07c-10,4.06-4.36,15.59-4.94,37.2-.44,16.3,3.25,28.08,1.6,33.41-.53,1.74-1.43,3.13-3.52,3-1.43-.06-2.49-1.39-3-3.06-2.94-9.47,4.74-43.45,2-53.81-3.2-12.18-7-6.61-9-15.62-4.72-20.76,0-25.1,0-25.1l182.87.27a27.63,27.63,0,0,1,1.1,6.47A57,57,0,0,1,185.61,26.62Z"/><path class="cls-7" d="M185.28,26.34h0a26.41,26.41,0,0,1-1.2,3.68c-4.63,11.31-17.63,6.32-24.87,2.65-1.71-.86-3.88-2-6.17-1.33-5.88,1.61-7,11.46-6.6,21.13.51,11.26,4.49,37.13,2.58,48.23a16.56,16.56,0,0,1-1.27,4.21c-1.5,3-3.58,4.38-5.56,4.27-3.56-.19-7.15-5.49-7.33-16.6-.22-12.72,3.5-33.86,1.3-46.77h0c-.78-4.62-2.32-8.18-5.07-9.93-6.49-4.14-10-2.86-11.64.94v0a23.52,23.52,0,0,0-1.38,9c0,9.3,7,20.42,3.42,29.27-3.36,8.26-14.12,7-15.76-3.38-.69-4.38,1-11.9,2.72-20,1.92-9.11,2.69-18.29-2.7-22.49a8,8,0,0,0-3.43-1.87c-3-.58-5.38,1.45-7.78,3.32-5.18,4-10.35,10.53-21.82,10.47-16.79-.11-19.88-14.95-30-15.69a4.57,4.57,0,0,0-3.57,1.54,7.57,7.57,0,0,0-2,3.8c-.55,3.44,1,9.22,2.09,14,.92,4.28,1.07,7-.76,9.81C34.4,61,22.81,58.63,23.82,48.23c.46-4.64,4.07-10.45,4.48-15.07s-3.55-9-8.41-7.06c-10,4-4.34,15.56-4.92,37.15-.44,16.27,3.24,28,1.6,33.35-.53,1.74-1.43,3.13-3.51,3-1.43-.06-2.49-1.38-3-3-2.92-9.45,4.73-43.39,2-53.73-3.18-12.17-6.93-6.61-9-15.6-4.7-20.73,0-25.07,0-25.07l182.38.27a27.35,27.35,0,0,1,1.09,6.46A57,57,0,0,1,185.28,26.34Z"/><path class="cls-8" d="M184.94,26.07h0a29.2,29.2,0,0,1-1.2,3.67c-4.62,11.3-17.58,6.31-24.8,2.65-1.71-.86-3.87-2-6.16-1.33-5.87,1.61-7,11.45-6.58,21.1.51,11.25,4.48,37.07,2.58,48.16a16.56,16.56,0,0,1-1.27,4.21c-1.5,3-3.57,4.37-5.54,4.27-3.56-.2-7.14-5.49-7.32-16.59-.21-12.7,3.49-33.81,1.3-46.7h0c-.78-4.61-2.32-8.17-5.06-9.92-6.47-4.13-9.92-2.85-11.6.94v0a23.5,23.5,0,0,0-1.38,9c0,9.29,7,20.39,3.41,29.23-3.35,8.24-14.08,7-15.71-3.38-.69-4.37,1-11.88,2.7-19.94,1.92-9.1,2.69-18.26-2.69-22.46a8,8,0,0,0-3.42-1.87c-3-.58-5.36,1.45-7.76,3.32-5.16,4-10.31,10.52-21.76,10.45C55.93,40.81,52.85,26,42.79,25.25a4.5,4.5,0,0,0-3.55,1.54,7.47,7.47,0,0,0-2,3.79c-.54,3.44,1,9.21,2.08,14,.92,4.28,1.07,7-.76,9.79-4.12,6.29-15.69,3.94-14.67-6.44.46-4.64,4.05-10.44,4.47-15s-3.54-9-8.39-7.05c-10,4.05-4.33,15.54-4.91,37.09-.43,16.25,3.23,28,1.6,33.31-.54,1.74-1.43,3.13-3.51,3-1.42-.06-2.48-1.38-3-3-2.92-9.44,4.71-43.33,2-53.66C9,30.41,5.3,36,3.26,27c-4.69-20.7,0-25,0-25l181.88.26a27.33,27.33,0,0,1,1.09,6.45A56.9,56.9,0,0,1,184.94,26.07Z"/><path class="cls-9" d="M184.61,25.8h0a27,27,0,0,1-1.19,3.66c-4.61,11.29-17.53,6.3-24.73,2.65-1.71-.86-3.87-2-6.15-1.33-5.85,1.61-7,11.43-6.56,21.08.51,11.22,4.47,37,2.57,48.09a17,17,0,0,1-1.26,4.2c-1.5,3-3.56,4.36-5.53,4.26-3.55-.19-7.11-5.48-7.3-16.56-.21-12.69,3.48-33.76,1.3-46.64h0c-.78-4.6-2.31-8.16-5-9.91-6.46-4.12-9.9-2.84-11.58.94v0a23.54,23.54,0,0,0-1.37,9c0,9.28,7,20.36,3.4,29.19-3.34,8.23-14,7-15.67-3.38-.69-4.36,1-11.86,2.7-19.91,1.91-9.08,2.68-18.23-2.68-22.43a8,8,0,0,0-3.42-1.86c-3-.58-5.35,1.45-7.73,3.31-5.15,4-10.29,10.51-21.7,10.44C56,40.51,52.87,25.71,42.85,25a4.5,4.5,0,0,0-3.55,1.54,7.41,7.41,0,0,0-1.95,3.79c-.54,3.42,1,9.19,2.07,14,.92,4.27,1.07,7-.75,9.78C34.56,60.34,23,58,24,47.63c.45-4.63,4-10.43,4.45-15s-3.53-9-8.36-7c-10,4.05-4.32,15.52-4.9,37.05-.43,16.23,3.22,28,1.59,33.26-.53,1.74-1.42,3.12-3.49,3-1.43-.06-2.47-1.38-3-3-2.91-9.43,4.7-43.27,2-53.58-3.17-12.13-6.9-6.59-8.93-15.56-4.67-20.67,0-25,0-25L184.81,2a27.84,27.84,0,0,1,1.09,6.45A57.34,57.34,0,0,1,184.61,25.8Z"/><path class="cls-10" d="M184.27,25.53h0a28.87,28.87,0,0,1-1.19,3.65c-4.6,11.27-17.49,6.3-24.67,2.65-1.69-.86-3.85-2-6.12-1.33-5.84,1.61-7,11.42-6.55,21.05.51,11.21,4.46,37,2.57,48a16.82,16.82,0,0,1-1.26,4.19c-1.5,3-3.56,4.37-5.52,4.26-3.53-.19-7.09-5.47-7.27-16.54-.22-12.66,3.47-33.71,1.29-46.57h0c-.78-4.6-2.3-8.15-5-9.89-6.44-4.12-9.87-2.85-11.54.94a0,0,0,0,0,0,0,23.32,23.32,0,0,0-1.37,9c0,9.26,7,20.33,3.39,29.15-3.33,8.22-14,6.94-15.63-3.37-.69-4.36,1-11.85,2.69-19.89,1.91-9.07,2.68-18.2-2.67-22.39A8,8,0,0,0,102,26.59C99,26,96.64,28,94.26,29.9c-5.14,4-10.26,10.49-21.64,10.43C56,40.22,52.9,25.44,42.9,24.71a4.48,4.48,0,0,0-3.53,1.53A7.41,7.41,0,0,0,37.42,30c-.54,3.42,1,9.18,2.07,13.95.91,4.27,1.06,7-.76,9.77-4.1,6.27-15.6,3.92-14.59-6.43.46-4.62,4-10.41,4.44-15s-3.52-9-8.34-7c-9.93,4-4.31,15.5-4.88,37C14.93,78.48,18.58,90.2,17,95.49c-.53,1.73-1.42,3.12-3.49,3-1.42-.06-2.46-1.38-3-3-2.91-9.42,4.68-43.21,2-53.51-3.16-12.11-6.88-6.58-8.9-15.53-4.67-20.65,0-25,0-25l180.88.26a27.82,27.82,0,0,1,1.09,6.44A57.24,57.24,0,0,1,184.27,25.53Z"/><path class="cls-11" d="M183.94,25.25h0a27,27,0,0,1-1.2,3.66c-4.58,11.25-17.43,6.28-24.59,2.64-1.69-.87-3.84-2-6.11-1.33-5.82,1.61-7,11.4-6.53,21,.51,11.19,4.45,36.91,2.56,48a16.71,16.71,0,0,1-1.25,4.19c-1.5,3-3.55,4.36-5.5,4.25-3.53-.19-7.08-5.46-7.26-16.51-.21-12.65,3.46-33.67,1.29-46.51h0c-.78-4.59-2.3-8.14-5-9.88-6.42-4.11-9.84-2.84-11.51.94v0a23.47,23.47,0,0,0-1.36,9c0,9.25,6.94,20.31,3.38,29.11-3.32,8.21-14,6.93-15.59-3.37-.68-4.35,1-11.83,2.69-19.86,1.9-9.06,2.66-18.18-2.67-22.36a8,8,0,0,0-3.4-1.86c-3-.58-5.31,1.45-7.69,3.3C89.05,33.63,83.94,40.1,72.59,40,56,39.93,52.93,25.17,43,24.43A4.49,4.49,0,0,0,39.43,26a7.4,7.4,0,0,0-1.94,3.78c-.54,3.41,1,9.16,2.06,13.93.91,4.26,1.06,7-.75,9.76C34.71,59.7,23.24,57.36,24.25,47c.45-4.62,4-10.4,4.43-15s-3.51-9-8.32-7c-9.9,4-4.3,15.47-4.87,36.94-.43,16.18,3.21,27.88,1.58,33.17-.53,1.73-1.41,3.11-3.47,3-1.42-.06-2.46-1.37-3-3-2.9-9.41,4.67-43.15,2-53.43-3.15-12.1-6.86-6.57-8.88-15.52-4.65-20.61,0-24.92,0-24.92l180.39.26a27.53,27.53,0,0,1,1.08,6.43A57.3,57.3,0,0,1,183.94,25.25Z"/><path class="cls-12" d="M183.6,25h0a27.35,27.35,0,0,1-1.19,3.65c-4.57,11.24-17.38,6.27-24.52,2.63-1.69-.86-3.84-1.95-6.1-1.32-5.8,1.6-6.94,11.38-6.5,21,.5,11.18,4.43,36.86,2.54,47.89a16.35,16.35,0,0,1-1.25,4.18c-1.49,3-3.53,4.35-5.48,4.24-3.52-.19-7.06-5.45-7.24-16.49-.21-12.63,3.45-33.62,1.29-46.44h0c-.78-4.59-2.29-8.13-5-9.86-6.41-4.11-9.82-2.84-11.49.93v0a23.45,23.45,0,0,0-1.36,9c0,9.24,6.91,20.28,3.37,29.07-3.31,8.19-13.93,6.92-15.54-3.37-.69-4.34,1-11.81,2.67-19.82,1.9-9.05,2.66-18.16-2.66-22.34A7.92,7.92,0,0,0,101.75,26c-3-.57-5.3,1.45-7.66,3.3-5.11,4-10.21,10.47-21.53,10.4C56,39.63,53,24.89,43,24.16a4.45,4.45,0,0,0-3.52,1.54,7.39,7.39,0,0,0-1.93,3.77c-.54,3.41,1,9.15,2,13.92.91,4.25,1.06,7-.74,9.73-4.08,6.26-15.52,3.92-14.52-6.4.46-4.61,4-10.38,4.42-15s-3.5-9-8.29-7c-9.88,4-4.29,15.45-4.86,36.89-.43,16.16,3.2,27.84,1.58,33.12-.53,1.73-1.41,3.11-3.47,3-1.41-.06-2.45-1.38-3-3-2.89-9.39,4.66-43.09,2-53.36C9.62,29.3,5.92,34.82,3.91,25.89-.73,5.3,3.91,1,3.91,1l179.89.26a27.5,27.5,0,0,1,1.08,6.42A57.19,57.19,0,0,1,183.6,25Z"/><path class="cls-13" d="M183.6,24h0a27.21,27.21,0,0,1-1.19,3.64c-4.57,11.23-17.38,6.27-24.52,2.64-1.69-.86-3.84-1.95-6.1-1.33-5.8,1.61-6.94,11.38-6.5,21,.5,11.17,4.43,36.83,2.54,47.85a16.47,16.47,0,0,1-1.25,4.18c-1.49,3-3.53,4.34-5.48,4.23-3.52-.19-7.06-5.45-7.24-16.47-.21-12.62,3.45-33.59,1.29-46.4h0c-.78-4.58-2.29-8.12-5-9.85-6.41-4.1-9.82-2.84-11.49.93v0a23.4,23.4,0,0,0-1.36,8.94c0,9.23,6.91,20.26,3.37,29-3.31,8.19-13.93,6.91-15.54-3.36-.69-4.34,1-11.8,2.67-19.81,1.9-9,2.66-18.14-2.66-22.31A7.92,7.92,0,0,0,101.75,25c-3-.57-5.3,1.44-7.66,3.3C89,32.32,83.88,38.77,72.56,38.7,56,38.6,53,23.87,43,23.14a4.48,4.48,0,0,0-3.52,1.53,7.39,7.39,0,0,0-1.93,3.77c-.54,3.41,1,9.15,2,13.91.91,4.25,1.06,6.95-.74,9.73C34.79,58.33,23.35,56,24.35,45.67c.46-4.6,4-10.37,4.42-15s-3.5-9-8.29-7c-9.88,4-4.29,15.44-4.86,36.86-.43,16.14,3.2,27.82,1.58,33.09-.53,1.73-1.41,3.11-3.47,3-1.41-.06-2.45-1.37-3-3-2.89-9.38,4.66-43.05,2-53.31C9.62,28.27,5.92,33.79,3.91,24.87-.73,4.3,3.91,0,3.91,0L183.8.26a27.32,27.32,0,0,1,1.08,6.41A57.1,57.1,0,0,1,183.6,24Z"/><g class="cls-14"><path class="cls-15" d="M101,25.11a7,7,0,0,0-4,1.12c-1.24.67-2.12,1.69-4.61,3.59A51.45,51.45,0,0,1,84.18,35a25.53,25.53,0,0,1-11,3,24.33,24.33,0,0,1-14.91-5.06c-3.76-2.75-6.68-6-9.89-8.09A10,10,0,0,0,43.43,23a4,4,0,0,0-1.79.17s1.44-1.43,5.18-1.19c2.25.15,7.63,2.43,10.8,4.52,6.12,4,9.2,5.38,15.41,5.42,6,.05,10.16-3,14.29-5.19a27,27,0,0,1,8.83-2.63c4.45-.84,6.32,1.09,6.24,1.27s-.18-.08-.45-.13S101.3,25.13,101,25.11Z"/><path class="cls-16" d="M41.59,23.17s1.5-1.43,5.21-1.15a11.75,11.75,0,0,1,2.53.61,38.16,38.16,0,0,1,8.18,4.15c4.6,3.09,7.67,4.74,11.62,5.3a27.72,27.72,0,0,0,3.8.27c4.67.06,8.27-1.68,11.53-3.51,1-.55,1.91-1.1,2.84-1.62a27.64,27.64,0,0,1,8.15-2.81l.57-.12a8.81,8.81,0,0,1,4.56,0,3,3,0,0,1,1.7,1c0,.05-.12-.06-.36-.1a5.9,5.9,0,0,0-.59-.06h-.19a5.23,5.23,0,0,0-1.57.09,9.18,9.18,0,0,0-2.48,1,5.84,5.84,0,0,0-.57.35c-1,.67-2,1.65-4,3.21a52.88,52.88,0,0,1-8.13,5.19,26.26,26.26,0,0,1-8.07,2.67,21.33,21.33,0,0,1-4.12.14,24.86,24.86,0,0,1-11.23-3.16,30.13,30.13,0,0,1-3.15-2.08c-1.57-1.18-3-2.42-4.32-3.6a43.32,43.32,0,0,0-5.33-4.25L48,24.57A9.45,9.45,0,0,0,43.33,23a4.79,4.79,0,0,0-.76,0A3.08,3.08,0,0,0,41.59,23.17Z"/><path class="cls-17" d="M41.54,23.19s1.55-1.44,5.23-1.11a11.83,11.83,0,0,1,2.55.63,37.33,37.33,0,0,1,8.08,4.37c4.46,3.07,7.68,4.86,11.61,5.43a28.41,28.41,0,0,0,3.83.29c4.7.08,8.35-1.6,11.6-3.43,1-.54,1.91-1.1,2.84-1.63a29.75,29.75,0,0,1,8-3.09l.57-.15a8.86,8.86,0,0,1,4.54-.19,3.55,3.55,0,0,1,1.75.94c0,.05-.08-.05-.28-.08a3.62,3.62,0,0,0-.47,0h-.19a5.81,5.81,0,0,0-1.57.07,8.65,8.65,0,0,0-2.48.92c-.2.1-.39.22-.58.34-1,.68-2.07,1.67-4,3.19a55.93,55.93,0,0,1-8.06,5.25,24.26,24.26,0,0,1-8.85,2.76,23.54,23.54,0,0,1-4.48-.1,25.53,25.53,0,0,1-10.82-3.36,29.75,29.75,0,0,1-3-2.06c-1.54-1.18-2.9-2.4-4.2-3.52a36.92,36.92,0,0,0-5.23-4.08l-.12-.08A9.34,9.34,0,0,0,43.23,23a5.88,5.88,0,0,0-.74,0A2.78,2.78,0,0,0,41.54,23.19Z"/><path class="cls-18" d="M41.49,23.22s1.61-1.44,5.26-1.07a11.66,11.66,0,0,1,2.55.64,37.2,37.2,0,0,1,8,4.59c4.31,3,7.69,5,11.61,5.56a30.78,30.78,0,0,0,3.84.31,22.23,22.23,0,0,0,11.67-3.34c1-.54,1.92-1.11,2.85-1.65a33.6,33.6,0,0,1,7.94-3.38l.55-.16a8.78,8.78,0,0,1,4.53-.38,4.38,4.38,0,0,1,1.8.85c0,.06,0,0-.2-.05a2.6,2.6,0,0,0-.36,0l-.19,0a6,6,0,0,0-1.56.05,8.57,8.57,0,0,0-2.48.88l-.58.34c-1.06.68-2.14,1.67-4,3.16a58.44,58.44,0,0,1-8,5.31,23.16,23.16,0,0,1-9.61,2.85,24,24,0,0,1-4.86-.35,26.18,26.18,0,0,1-10.39-3.54,33,33,0,0,1-2.93-2.06c-1.49-1.17-2.81-2.36-4.06-3.44a33.09,33.09,0,0,0-5.13-3.91l-.12-.07A9.13,9.13,0,0,0,43.12,23l-.71,0A2.44,2.44,0,0,0,41.49,23.22Z"/><path class="cls-19" d="M41.44,23.24s1.66-1.44,5.29-1a11.89,11.89,0,0,1,2.56.67c2.62,1,5.44,3,7.89,4.8,4.17,3,7.7,5.08,11.61,5.68a27.73,27.73,0,0,0,3.85.33,22.18,22.18,0,0,0,11.75-3.24c1-.55,1.93-1.12,2.85-1.68a37.73,37.73,0,0,1,7.83-3.65l.55-.19a8.88,8.88,0,0,1,4.51-.56,4.4,4.4,0,0,1,1.84.77c.06.05,0,0-.1,0s-.11.06-.25.07h-.19a6.28,6.28,0,0,0-1.56,0,8.39,8.39,0,0,0-2.49.86l-.58.33c-1.08.68-2.2,1.68-4,3.12a59.37,59.37,0,0,1-7.91,5.38,22.69,22.69,0,0,1-10.39,2.94,24.21,24.21,0,0,1-5.23-.59,26.88,26.88,0,0,1-10-3.73c-1-.66-1.94-1.35-2.81-2.05-1.46-1.17-2.74-2.34-3.94-3.36a29.13,29.13,0,0,0-5-3.74l-.12-.07A8.88,8.88,0,0,0,43,23a5,5,0,0,0-.69,0A2.69,2.69,0,0,0,41.44,23.24Z"/><path class="cls-20" d="M41.39,23.26s1.72-1.44,5.32-1a11.65,11.65,0,0,1,2.56.69c2.64,1,5.31,3.18,7.8,5,4,3,7.71,5.2,11.6,5.81a28.69,28.69,0,0,0,3.88.35A22.13,22.13,0,0,0,84.37,31c1-.54,1.93-1.12,2.85-1.69a44.36,44.36,0,0,1,7.72-3.94l.55-.2A8.91,8.91,0,0,1,100,24.4a5.2,5.2,0,0,1,1.89.69c.07,0,.06,0,0,0s0,.1-.14.11h-.18a7.4,7.4,0,0,0-1.57,0,8,8,0,0,0-2.48.82c-.19.1-.39.21-.58.33-1.11.68-2.27,1.69-4.05,3.09A62.49,62.49,0,0,1,85,34.86a22.83,22.83,0,0,1-11.16,3,24.87,24.87,0,0,1-5.6-.83,27.18,27.18,0,0,1-9.56-3.93c-1-.66-1.86-1.35-2.69-2-1.43-1.18-2.66-2.32-3.81-3.28a26.46,26.46,0,0,0-4.93-3.58l-.11-.06A8.66,8.66,0,0,0,42.92,23a6.71,6.71,0,0,0-.67,0A2.62,2.62,0,0,0,41.39,23.26Z"/><path class="cls-21" d="M41.34,23.29s1.77-1.44,5.35-1a12.18,12.18,0,0,1,2.57.71c2.64,1,5.17,3.33,7.7,5.24,3.9,2.95,7.72,5.31,11.6,5.94a29.29,29.29,0,0,0,3.89.37,22.2,22.2,0,0,0,11.89-3.07c1-.55,1.94-1.14,2.86-1.72a54.25,54.25,0,0,1,7.61-4.21l.55-.23a8.94,8.94,0,0,1,4.47-.93,5.83,5.83,0,0,1,1.94.61c.09,0,.11,0,.06,0s.09.13,0,.15a.61.61,0,0,1-.18,0,7.91,7.91,0,0,0-1.56,0,7.46,7.46,0,0,0-2.48.78c-.2.1-.39.21-.59.33a43.36,43.36,0,0,0-4,3.06,65.62,65.62,0,0,1-7.75,5.51A22.93,22.93,0,0,1,73.25,38a25.12,25.12,0,0,1-6-1.07,27.43,27.43,0,0,1-9.13-4.12c-.94-.67-1.79-1.36-2.59-2-1.39-1.17-2.57-2.28-3.68-3.19a23.59,23.59,0,0,0-4.82-3.41l-.12-.06A8.43,8.43,0,0,0,42.82,23l-.65.05A2.45,2.45,0,0,0,41.34,23.29Z"/><path class="cls-22" d="M41.29,23.31s1.83-1.43,5.37-.92a12,12,0,0,1,2.58.73c2.66,1.07,5,3.48,7.61,5.46,3.76,2.91,7.73,5.42,11.59,6.07a32.16,32.16,0,0,0,3.91.39,22.27,22.27,0,0,0,12-3c1-.55,1.94-1.15,2.86-1.74a67.42,67.42,0,0,1,7.51-4.5l.54-.25a9.11,9.11,0,0,1,4.45-1.11,6.45,6.45,0,0,1,2,.53c.1,0,.15,0,.14,0s.19.16.09.18h-.18a7.8,7.8,0,0,0-1.56-.06,7.25,7.25,0,0,0-2.49.74l-.59.32a42.25,42.25,0,0,0-4,3,67.55,67.55,0,0,1-7.68,5.57A23,23,0,0,1,72.64,38a25.26,25.26,0,0,1-6.33-1.31,27.46,27.46,0,0,1-8.72-4.32c-.9-.67-1.72-1.35-2.47-2-1.35-1.17-2.5-2.26-3.56-3.11A20.88,20.88,0,0,0,46.84,24L46.73,24a8.37,8.37,0,0,0-4-1l-.63.06A2.41,2.41,0,0,0,41.29,23.31Z"/><path class="cls-23" d="M41.24,23.34a7.35,7.35,0,0,1,5.4-.89,12.11,12.11,0,0,1,2.59.76c2.66,1.09,4.91,3.62,7.51,5.68,3.63,2.86,7.74,5.53,11.59,6.18a29.27,29.27,0,0,0,3.93.41,22.26,22.26,0,0,0,12-2.89c1-.55,1.95-1.15,2.87-1.76,3.14-2.07,5.76-4,7.4-4.77l.53-.27a9.36,9.36,0,0,1,4.44-1.3,6.76,6.76,0,0,1,2,.45c.13,0,.2,0,.23.06s.28.19.2.23a.62.62,0,0,1-.18,0,10.7,10.7,0,0,0-1.55-.09,7,7,0,0,0-2.49.72c-.19.09-.39.19-.59.31a36.38,36.38,0,0,0-4.06,3,69.59,69.59,0,0,1-7.6,5.63A23.36,23.36,0,0,1,72,38.09a24.38,24.38,0,0,1-6.71-1.56A27.16,27.16,0,0,1,57,32c-.87-.68-1.65-1.36-2.37-2-1.31-1.18-2.41-2.23-3.42-3a19.1,19.1,0,0,0-4.62-3.07l-.11-.05a8,8,0,0,0-3.9-.86,6,6,0,0,0-.61.07A2.2,2.2,0,0,0,41.24,23.34Z"/><path class="cls-24" d="M41.19,23.36a7.46,7.46,0,0,1,5.43-.85,11.79,11.79,0,0,1,2.59.78c2.68,1.12,4.78,3.76,7.42,5.9,3.5,2.83,7.75,5.64,11.58,6.31a28.88,28.88,0,0,0,4,.43,22.36,22.36,0,0,0,12.11-2.8c1-.55,2-1.16,2.87-1.78,3.15-2.13,5.75-4.23,7.29-5.06L95,26c2-1.07,3.26-1.52,4.42-1.48a8.57,8.57,0,0,1,2.08.37l.31.08c.08,0,.38.22.31.27a.43.43,0,0,1-.17,0,10.83,10.83,0,0,0-1.55-.12,6.83,6.83,0,0,0-2.49.68c-.19.09-.39.19-.6.31a33.56,33.56,0,0,0-4.06,3,72.7,72.7,0,0,1-7.52,5.69,23.68,23.68,0,0,1-14.26,3.38,24.83,24.83,0,0,1-7.08-1.8,26.78,26.78,0,0,1-7.87-4.7c-.82-.68-1.57-1.35-2.25-2-1.28-1.17-2.33-2.2-3.3-3a16.81,16.81,0,0,0-4.52-2.91l-.1,0A7.94,7.94,0,0,0,42.52,23l-.59.08A2.74,2.74,0,0,0,41.19,23.36Z"/><path class="cls-25" d="M41.14,23.38a7.56,7.56,0,0,1,5.46-.81,12.41,12.41,0,0,1,2.6.8c2.69,1.16,4.65,3.9,7.32,6.12,3.37,2.78,7.76,5.75,11.58,6.44a31.61,31.61,0,0,0,4,.45,22.5,22.5,0,0,0,12.18-2.71c1-.56,2-1.17,2.88-1.8,3.16-2.19,5.72-4.49,7.18-5.34l.53-.31a9.94,9.94,0,0,1,4.4-1.67,7.12,7.12,0,0,1,2.13.29l.39.1c.12,0,.48.25.43.31a.43.43,0,0,1-.17,0,12.75,12.75,0,0,0-1.55-.14,6.4,6.4,0,0,0-2.49.64c-.2.09-.39.19-.6.31a30.55,30.55,0,0,0-4.06,3,79.35,79.35,0,0,1-7.45,5.75,24.1,24.1,0,0,1-15,3.47,24.36,24.36,0,0,1-7.45-2,26.65,26.65,0,0,1-7.46-4.89q-1.17-1.05-2.13-2c-1.24-1.18-2.25-2.17-3.17-2.87a14.83,14.83,0,0,0-4.42-2.74l-.1,0A7.75,7.75,0,0,0,42.42,23l-.57.09A3,3,0,0,0,41.14,23.38Z"/><path class="cls-26" d="M41.09,23.41s3.1-2.15,8.09.05c2.7,1.18,4.52,4,7.23,6.33,3.24,2.74,7.77,5.87,11.57,6.56,7,1.28,12.34,0,16.24-2.15,4.49-2.48,8.19-6.3,10-7.44,2.27-1.46,3.61-2,4.9-2.18a7.71,7.71,0,0,1,2.65.33c.16.05.57.28.54.35s-1.24-.18-1.71-.16a6.51,6.51,0,0,0-3.1.91c-3.38,1.86-7.59,6.3-11.43,8.73A24.52,24.52,0,0,1,70.22,38.3,24.09,24.09,0,0,1,62.4,36a25.74,25.74,0,0,1-7-5.09c-2.21-2.07-3.75-3.78-5.07-4.75a13.55,13.55,0,0,0-4.41-2.61,7.06,7.06,0,0,0-4.12-.45A2.62,2.62,0,0,0,41.09,23.41Z"/></g><g class="cls-14"><path class="cls-15" d="M183.73,22.76a26.68,26.68,0,0,1-1.7,5.36c-1.85,3.65-4,5.33-8.06,5.73-5.79.58-10.88-1.39-14.71-3-1-.42-1-.59-2.4-1.23a8.78,8.78,0,0,0-4.62-.85,15.14,15.14,0,0,1,6.1-.87c1.22,0,4.57.42,6.62.67,4.59.57,5.85.7,9.17.09a12.28,12.28,0,0,0,6.78-3.52,13.51,13.51,0,0,0,2.5-3.67C184.47,19.27,183.76,22.62,183.73,22.76Z"/><path class="cls-16" d="M183.41,21.7c.63-1.31.57-.47.44.37-.07.44-.16.87-.18.93A25.72,25.72,0,0,1,182,28.14c-1.74,3.43-3.79,4.93-7.53,5.49a21.33,21.33,0,0,1-5.91.08,22.36,22.36,0,0,1-3.22-.66c-1.28-.36-2.49-.75-3.59-1.17-.9-.35-1.71-.67-2.46-1-1-.4-1.09-.6-2.42-1.23a8.92,8.92,0,0,0-1.39-.53,8.38,8.38,0,0,0-3.24-.34,11.3,11.3,0,0,1,3.69-.71,17.64,17.64,0,0,1,2.43,0c1.06.06,3.38.36,5.2.6l1.42.19a38.21,38.21,0,0,0,5.89.51A21.69,21.69,0,0,0,174.2,29a12,12,0,0,0,4.47-1.69A11.19,11.19,0,0,0,181,25.41a8.16,8.16,0,0,0,.68-.79,13.85,13.85,0,0,0,1.56-2.47C183.28,22,183.35,21.81,183.41,21.7Z"/><path class="cls-17" d="M183.41,21.9c.58-1.18.51-.39.38.44-.07.42-.16.82-.17.89A26.07,26.07,0,0,1,182,28.16a8.79,8.79,0,0,1-7,5.24,20.25,20.25,0,0,1-6.05.38,19.57,19.57,0,0,1-3.34-.65,39,39,0,0,1-3.72-1.19c-1-.38-1.79-.7-2.55-1-.91-.38-1.13-.62-2.43-1.23a10.26,10.26,0,0,0-1.4-.54,8.47,8.47,0,0,0-3.26-.36,11.27,11.27,0,0,1,3.72-.63,19.38,19.38,0,0,1,2.43.07c1.15.11,3.49.45,5.2.69l1.42.22a35.81,35.81,0,0,0,5.91.53,20.83,20.83,0,0,0,3.32-.36,11.59,11.59,0,0,0,4.48-1.7A11.37,11.37,0,0,0,181,25.66c.24-.26.46-.53.67-.8a13.72,13.72,0,0,0,1.52-2.5Z"/><path class="cls-18" d="M183.41,22.11c.52-1.06.45-.32.31.51-.06.39-.14.77-.16.85A24.42,24.42,0,0,1,182,28.18a8.67,8.67,0,0,1-6.46,5,18.94,18.94,0,0,1-6.18.66,18.4,18.4,0,0,1-3.46-.62A39.24,39.24,0,0,1,162.05,32c-1-.41-1.88-.73-2.64-1.06s-1.17-.64-2.44-1.24a11.88,11.88,0,0,0-1.4-.55,8.21,8.21,0,0,0-3.28-.37,17.55,17.55,0,0,1,3.74-.55,13.23,13.23,0,0,1,2.43.14c1.25.15,3.61.54,5.2.79l1.42.23A34.76,34.76,0,0,0,171,30a21.37,21.37,0,0,0,3.34-.34,10.83,10.83,0,0,0,6.71-3.69c.23-.28.45-.55.65-.82a15.14,15.14,0,0,0,1.5-2.53Z"/><path class="cls-19" d="M183.41,22.31c.47-.94.39-.24.25.59-.06.36-.13.71-.16.81A23.25,23.25,0,0,1,182,28.2,8.59,8.59,0,0,1,176.07,33a18.21,18.21,0,0,1-6.33.94,15.73,15.73,0,0,1-3.57-.6,37.31,37.31,0,0,1-4-1.24c-1.11-.44-2-.77-2.73-1.1s-1.21-.65-2.46-1.24a13.17,13.17,0,0,0-1.4-.56,8.22,8.22,0,0,0-3.29-.39,20.33,20.33,0,0,1,3.76-.47,13.77,13.77,0,0,1,2.43.21c1.34.21,3.72.64,5.21.89l1.41.26a33.56,33.56,0,0,0,5.94.58,20.82,20.82,0,0,0,3.35-.32,10.8,10.8,0,0,0,4.48-1.72,11.05,11.05,0,0,0,2.2-2c.24-.28.45-.56.64-.83a15.39,15.39,0,0,0,1.47-2.56C183.29,22.57,183.36,22.41,183.41,22.31Z"/><path class="cls-20" d="M183.41,22.52c.42-.82.33-.17.19.66-.06.33-.13.66-.15.77A22.85,22.85,0,0,1,182,28.22a8.52,8.52,0,0,1-5.38,4.52A17.23,17.23,0,0,1,170.13,34a15.43,15.43,0,0,1-3.69-.58,38.83,38.83,0,0,1-4.12-1.27c-1.17-.47-2-.79-2.81-1.14s-1.25-.66-2.47-1.24a12.62,12.62,0,0,0-1.41-.57,7.92,7.92,0,0,0-3.3-.4,9.1,9.1,0,0,1,3.77-.39,19.06,19.06,0,0,1,2.44.28c1.43.26,3.83.73,5.21,1,.48.09.95.2,1.41.28a33.37,33.37,0,0,0,6,.61,21.54,21.54,0,0,0,3.36-.31A10.25,10.25,0,0,0,179,28.49a10.8,10.8,0,0,0,2.18-2.07q.35-.44.63-.84A15.81,15.81,0,0,0,183.2,23Z"/><path class="cls-21" d="M183.41,22.72c.36-.69.28-.08.13.74,0,.3-.12.61-.15.73a21.58,21.58,0,0,1-1.42,4,8.43,8.43,0,0,1-4.85,4.28,16,16,0,0,1-6.6,1.52,14.44,14.44,0,0,1-3.82-.56,38.52,38.52,0,0,1-4.24-1.29c-1.24-.51-2.12-.82-2.9-1.17s-1.29-.69-2.48-1.25c-.48-.22-1-.42-1.41-.58a8.15,8.15,0,0,0-3.32-.42,8.71,8.71,0,0,1,3.79-.31,22.75,22.75,0,0,1,2.44.36c1.53.3,3.95.83,5.21,1.09.47.09,1,.21,1.41.29a31.44,31.44,0,0,0,6,.64,22.1,22.1,0,0,0,3.37-.29,10.05,10.05,0,0,0,4.5-1.75,10.55,10.55,0,0,0,2.15-2.12c.22-.29.42-.57.61-.86a16,16,0,0,0,1.4-2.61Z"/><path class="cls-22" d="M183.41,22.93c.3-.58.22,0,.07.81,0,.28-.11.55-.15.69A19.7,19.7,0,0,1,182,28.25a8.44,8.44,0,0,1-4.31,4,15,15,0,0,1-6.75,1.8,14,14,0,0,1-3.93-.53,41.46,41.46,0,0,1-4.37-1.32c-1.31-.54-2.21-.85-3-1.21s-1.33-.7-2.5-1.25c-.47-.22-1-.42-1.41-.59a8,8,0,0,0-3.33-.43,8,8,0,0,1,3.81-.23,24,24,0,0,1,2.44.42l5.22,1.19c.46.11.93.23,1.4.32a30.34,30.34,0,0,0,6,.66,21.63,21.63,0,0,0,3.38-.27,9.68,9.68,0,0,0,4.5-1.76,10.35,10.35,0,0,0,2.12-2.17q.33-.44.6-.87a16.15,16.15,0,0,0,1.37-2.64C183.31,23.17,183.37,23,183.41,22.93Z"/><path class="cls-23" d="M183.41,23.14c.25-.46.16.06,0,.88,0,.25-.11.5-.15.65a18.5,18.5,0,0,1-1.32,3.6,8.62,8.62,0,0,1-3.78,3.8,14.13,14.13,0,0,1-6.88,2.09,13.93,13.93,0,0,1-4-.52,41,41,0,0,1-4.51-1.34c-1.36-.57-2.28-.88-3.07-1.25s-1.37-.71-2.51-1.25c-.47-.22-1-.43-1.42-.6a8,8,0,0,0-3.35-.45s1.07-.52,3.83-.14a23.6,23.6,0,0,1,2.45.49l5.22,1.29c.45.11.92.24,1.4.34a29.35,29.35,0,0,0,6,.68,22.62,22.62,0,0,0,3.4-.25,9.29,9.29,0,0,0,4.5-1.78,10.19,10.19,0,0,0,2.1-2.21c.21-.3.41-.59.59-.88a18.62,18.62,0,0,0,1.34-2.67C183.31,23.37,183.37,23.21,183.41,23.14Z"/><path class="cls-24" d="M183.41,23.34c.19-.34.1.14-.06.95,0,.23-.09.46-.13.62a18.3,18.3,0,0,1-1.28,3.38,8.91,8.91,0,0,1-3.24,3.55,13,13,0,0,1-7,2.38,13.68,13.68,0,0,1-4.17-.49,42.48,42.48,0,0,1-4.64-1.37c-1.43-.6-2.37-.91-3.16-1.28-.6-.29-1.41-.73-2.52-1.26-.47-.22-1-.43-1.42-.61a8,8,0,0,0-3.37-.46s1-.56,3.85-.07c.38.07,1.33.28,2.45.57,1.8.47,4.29,1.13,5.22,1.39.45.12.92.25,1.4.35a28.47,28.47,0,0,0,6,.72,23.72,23.72,0,0,0,3.42-.24,9,9,0,0,0,4.5-1.79,10.12,10.12,0,0,0,2.08-2.26c.21-.3.4-.6.57-.89a19.26,19.26,0,0,0,1.31-2.7C183.31,23.57,183.38,23.4,183.41,23.34Z"/><path class="cls-25" d="M183.41,23.55c.13-.22,0,.21-.12,1,0,.2-.08.4-.13.58a16.39,16.39,0,0,1-1.23,3.16,9.85,9.85,0,0,1-2.7,3.31,11.75,11.75,0,0,1-7.17,2.66,13.1,13.1,0,0,1-4.28-.47A40.82,40.82,0,0,1,163,32.42c-1.5-.64-2.45-.94-3.25-1.32-.56-.27-1.44-.75-2.54-1.26-.47-.22-.95-.43-1.42-.62a7.69,7.69,0,0,0-3.38-.47s1-.6,3.87,0c.34.07,1.31.32,2.45.64,1.9.52,4.4,1.23,5.23,1.48.44.14.9.27,1.39.38a28.11,28.11,0,0,0,6,.74,25,25,0,0,0,3.43-.22,8.75,8.75,0,0,0,4.51-1.8,10.17,10.17,0,0,0,2-2.31c.21-.3.39-.61.56-.9A18.71,18.71,0,0,0,183.21,24C183.32,23.77,183.38,23.6,183.41,23.55Z"/><path class="cls-26" d="M152.44,28.74s1-.66,3.88.09c.83.22,6.55,1.92,7.69,2.3a26.42,26.42,0,0,0,7.44,1.16c3.85,0,6.08-.48,8-2A11.52,11.52,0,0,0,182,27a19.53,19.53,0,0,0,1.24-2.75c.11-.29.17-.45.2-.5s0,.3-.18,1.1a14.09,14.09,0,0,1-1.31,3.48,12.47,12.47,0,0,1-2.17,3.07c-2.14,2.06-4.17,2.69-7.3,3a13.21,13.21,0,0,1-4.4-.45,42.28,42.28,0,0,1-4.9-1.42c-1.57-.67-2.54-1-3.34-1.36s-2.42-1.25-4-1.89A7.78,7.78,0,0,0,152.44,28.74Z"/></g><path class="cls-13" d="M5,3.94c-.33.61-2.36,5-1.54,11.64s7.12,14.78,10.74,9.14c3.2-5,10.5-5.59,13.11-3.15s6.84,5.56,11.73,0c4.11-4.67,16.21-.29,21.58,3.15s21.19-2.64,30.8-9.48,18.74,5,23.62,6.33,17.92,3.86,24.28-1.07,18.41-2.53,24.27,1.07,19.87,3.26,20.67-1.86c.44-2.81,1.74-16.2-.7-18.32S6.75.68,5,3.94Z"/><path class="cls-15" d="M3.91,0A29.47,29.47,0,0,0,2.33,12.77C3.15,19.41,6.7,26.12,12.24,24s11.88-6.12,14.48-3.68,6.51,5,11.08.82c11.82-10.87,23,8.66,33.69,7.71,13.1-1.16,16.2-6.12,21.36-9.8,9.61-6.84,14.07,5.07,18.49,7.54,7.92,4.4,18,5.37,27.76-2.38,6.31-5,15.9-3.95,21.63-.14,14.53,9.66,22.15,5.88,23.85-5.37.25-1.61,1.28-15.93-1.16-18C182.06-.49,125.55.52,77.5.25,66.9.19,56.6.14,47.21.11,22.29,0,3.91,0,3.91,0Z"/><path class="cls-27" d="M3.93,0A27.25,27.25,0,0,0,2.57,12.56C3.47,19,7,25.26,12.63,23c5.25-2.08,11.53-5.76,14.36-3.5s6.6,4.52,11.06.75a16.71,16.71,0,0,1,1.37-1c11.8-7.76,21.36,9.34,32.1,8.44,12.53-1,15.79-5.78,20.91-9.32,6.24-4.33,10.34-.9,13.75,2.57,1.6,1.62,3,3.28,4.46,4,6.45,3.44,14.31,4.85,22.29,1.25a28.5,28.5,0,0,0,4.75-2.77c6.39-4.53,15.56-3.74,21-.57C165.8,27,171.4,28,175.82,27.51s7.25-3.91,8.5-9.53c.38-1.74,1.5-15.22-.94-17.27C182.56,0,161,.26,134.08.29c-16.86,0-37.42.12-56.58,0L47.21.19,36.05.14C17.49,0,4.4,0,3.93,0Z"/><path class="cls-28" d="M4,.07c-.17,0-2.16,6-1.14,12.28S7.31,24.39,13,22c5-2.06,11.18-5.39,14.24-3.33,2.9,1.95,6.69,4,11,.7a13.37,13.37,0,0,1,1.38-.93C52,11.23,60.35,27.38,71.55,26.5c12-.93,15.38-5.44,20.45-8.85,6-4,10-1.13,13.49,2a24.48,24.48,0,0,0,4.45,3.69c6.28,3.2,13.91,4.74,21.65,1.73a27.53,27.53,0,0,0,4.67-2.39c6.49-4.08,15.27-3.56,20.45-1,7.16,3.52,12.88,4.57,17.81,4,4.34-.51,8-3,9.53-8.44.54-1.87,1.73-14.51-.7-16.5C182.53.07,160.49.45,134.06.4,118,.4,97,.47,77.49.38,66.71.33,56.3.3,47.22.27L36.05.22C18,.06,4.89.07,4,.07Z"/><path class="cls-29" d="M4,.11c-.25,0-2,6-.91,12S7.62,23.53,13.43,21c4.67-2,10.81-5,14.11-3.17,3,1.71,6.81,3.55,11,.64a15,15,0,0,1,1.39-.83c12.85-6.67,20,8.52,31.65,7.67,11.4-.84,15-5.1,20-8.38,5.69-3.72,9.7-1.37,13.23,1.44a28,28,0,0,0,4.44,3.34c6.1,3,13.5,4.63,21,2.22a25.87,25.87,0,0,0,4.59-2c6.61-3.6,15-3.41,19.87-1.45,7.3,3,13,2.91,18.5,3.37,4.46.38,8.74-2,10.58-7.35.7-2,2-13.81-.48-15.72C182.5.12,160,.65,134,.51c-15.36,0-36.77,0-56.56-.06C66.62.4,56.15.37,47.22.34L36.06.3C18.48.13,5.38.11,4,.11Z"/><path class="cls-30" d="M4,.14c-.33,0-1.91,6-.7,11.8C4.46,17.57,7.93,22.68,13.83,20c4.38-2,10.44-4.66,14-3,3.17,1.48,6.94,3.07,11,.58a13.59,13.59,0,0,1,1.41-.73c13.4-6.1,19.28,8.1,31.41,7.28,10.83-.74,14.54-4.76,19.53-7.91,5.41-3.41,9.36-1.6,13,.87a33,33,0,0,0,4.43,3c5.92,2.73,13.11,4.53,20.36,2.71a25.49,25.49,0,0,0,4.52-1.66c6.74-3.14,14.81-3.31,19.28-1.89,7.51,2.39,13.14,1.74,19.21,2.75a10.33,10.33,0,0,0,11.62-6.26c.86-2.14,2.17-13.11-.25-15C182.47.17,159.59.84,134,.62,119.4.55,97.58.58,77.48.51L47.22.42c-4.65,0-8.51,0-11.15,0C19,.16,5.86.14,4,.14Z"/><path class="cls-31" d="M4,.18c-.42,0-1.8,6-.48,11.55C4.79,17.11,8.25,21.83,14.23,19c4.1-1.95,10.06-4.28,13.85-2.84,3.29,1.26,7.08,2.61,11,.53a13.34,13.34,0,0,1,1.42-.64c14-5.5,18.59,7.68,31.19,6.89,10.26-.65,14.11-4.43,19.06-7.44,5.13-3.11,9-1.82,12.69.31a48,48,0,0,0,4.43,2.65c5.73,2.5,12.72,4.44,19.72,3.2a23.81,23.81,0,0,0,4.44-1.3c6.88-2.64,14.9-4,18.69-2.32,8,.25,13.29.53,19.91,2.12C175.24,21.28,181,20,183.26,15c1.05-2.26,2.4-12.4,0-14.18C182.44.22,159.15,1,134,.73,120.13.59,97.88.64,77.47.58L47.22.5c-4.83,0-8.73,0-11.15,0C19.47.2,6.35.18,4,.18Z"/><path class="cls-32" d="M4,.21c-.5,0-1.68,5.94-.26,11.32C5.11,16.65,8.56,21,14.63,18c3.82-1.89,9.68-3.89,13.73-2.66,3.41,1,7.23,2.16,10.94.46a12.83,12.83,0,0,1,1.43-.54c14.56-4.87,17.9,7.26,31,6.5,9.69-.56,13.69-4.09,18.61-7s8.65-2,12.42-.27c1.46.69,2.89,1.69,4.42,2.31,5.55,2.28,12.34,4.37,19.08,3.69a23.07,23.07,0,0,0,4.36-.93c7-2.14,14.71-4.05,18.1-2.76,8.17-.64,13.46-.71,20.61,1.49,4.75,1.46,11.19.78,13.71-4.08,1.23-2.39,2.62-11.7.2-13.41-.79-.56-24.5.34-49.23,0C120.86.66,98.19.7,77.46.65,66.33.62,55.7.61,47.22.58c-5,0-8.94,0-11.14-.06C20,.23,6.84.21,4,.21Z"/><path class="cls-33" d="M4,.25c-.58,0-1.56,5.91,0,11.07C5.44,16.19,8.89,20.17,15,17c3.55-1.84,9.3-3.5,13.61-2.5,3.53.82,7.39,1.73,10.92.4.5-.19,1-.31,1.45-.44,15.15-4.21,17.2,6.83,30.73,6.11,9.12-.48,13.26-3.76,18.14-6.49,4.55-2.54,8.28-2.23,12.16-.83,1.42.51,2.86,1.37,4.41,2a58.7,58.7,0,0,0,18.43,4.18,17.71,17.71,0,0,0,4.29-.56c7.19-1.62,14.51-4.07,17.52-3.21,8.35-1.52,13.63-2,21.31.88,4.85,1.79,12,1.73,14.74-3,1.43-2.5,2.85-11,.44-12.63-.79-.54-24.93.51-49.22.09C121.58.73,98.5.76,77.46.72L47.22.66C42,.65,38.06.64,36.08.6,20.46.26,7.33.25,4,.25Z"/><path class="cls-34" d="M4.05.28c-.66,0-1.45,5.89.18,10.83,1.53,4.62,5,8.24,11.19,4.87A23.47,23.47,0,0,1,28.9,13.65c3.65.61,7.56,1.32,10.9.35.52-.15,1-.25,1.46-.35C57,10.14,57.77,20,71.76,19.38c8.55-.41,12.83-3.45,17.69-6A15.43,15.43,0,0,1,101.34,12c1.37.34,2.83,1,4.39,1.61,5.18,1.85,11.59,4.25,17.8,4.67a20.3,20.3,0,0,0,4.21-.2C135.09,17,142.05,14,144.67,14.4c8.53-2.41,13.82-3.24,22,.25,5,2.12,12.9,2.7,15.79-1.91,1.63-2.61,3.07-10.28.66-11.86-.78-.51-25.34.69-49.2.17C122.31.8,98.8.82,77.45.78L47.22.74c-5.39,0-9.38,0-11.13-.06C21,.28,7.82.28,4.05.28Z"/><path class="cls-35" d="M4.07.32c-.75,0-1.34,5.86.4,10.59C6.08,15.27,9.55,18.54,15.82,15c3-1.71,8.54-2.69,13.36-2.17,3.77.41,7.73.93,10.87.29.53-.11,1-.17,1.47-.25,16.35-2.77,15.81,5.94,30.27,5.34,8-.33,12.4-3.13,17.23-5.55a18.59,18.59,0,0,1,11.62-2A27.78,27.78,0,0,1,105,11.94c5,1.64,11.2,4.22,17.15,5.15a18.74,18.74,0,0,0,4.14.18c7.51-.47,14.11-4.11,16.34-4.08,8.72-3.3,14-4.54,22.72-.38,5.1,2.44,13.77,3.69,16.83-.82,1.84-2.71,3.29-9.57.89-11.08-.78-.49-25.76.9-49.2.25C123,.9,99.11.87,77.44.85c-11.39,0-22.18,0-30.22,0C41.64.81,37.63.8,36.1.75,21.45.3,8.3.32,4.07.32Z"/><path class="cls-36" d="M4.09.35c-.84,0-1.24,5.84.62,10.35C6.39,14.82,9.89,17.75,16.22,14c2.74-1.63,8.16-2.27,13.23-2,3.9.21,7.89.56,10.85.23.54-.07,1-.1,1.49-.16,16.94-2,15.11,5.48,30,4.95,7.41-.26,12-2.83,16.76-5.08A23.86,23.86,0,0,1,100,9.39a17.72,17.72,0,0,1,4.38.92c4.79,1.44,10.8,4.2,16.51,5.64a17.25,17.25,0,0,0,4.06.54c7.66.16,14-3.91,15.75-4.51,9.33-3.14,14.26-5.84,23.42-1,5.24,2.76,14.64,4.68,17.87.28C184,8.43,185.46,2.37,183.06.93c-.77-.46-26.17,1.08-49.18.34C123.77,1,99.42.93,77.43.92L47.22.9c-5.76,0-9.81,0-11.12-.07C22,.3,8.79.35,4.09.35Z"/><path class="cls-37" d="M16.62,13c4.72-3,19.8-1.34,25.43-1.72,17.53-1.17,14.42,5,29.81,4.56,11.65-.33,17-6.89,27.4-7.71,4.82-.37,12.82,4.08,20.24,6.71,9.7,3.45,17.45-3.1,19.15-4,9.09-5.08,14.48-7.15,24.12-1.63,5.37,3.07,15.51,5.67,18.91,1.36C184,7.59,185.42,2.33,183,1c-.77-.45-26.59,1.24-49.17.42C115.9.73,41.32,1.14,36.11.9,22.45.29,9.28.39,4.1.39,2.36.39,3.19,21.43,16.62,13Z"/><path class="cls-38" d="M70.53,33.6c.22.61,1.55.91,3.08,1.11a14.58,14.58,0,0,0,8-1.75c6.42-3.6,6.08-4.81,10.65-9.2,2.64-2.53,5-1.88,1.57-.31-3.12,1.45-5,5.6-11.37,7.89-1.23.44-2.64-1.42-3.69.47S70,32.12,70.53,33.6Z"/><path class="cls-38" d="M168.49,30.48a4.17,4.17,0,0,0,2.27.8,8.34,8.34,0,0,0,4.32-.44,18.12,18.12,0,0,0,3.32-1.58c1.73-1.15,2.35-2.76,1.91-2.92-.92-.32-1.74,3.13-4,3.5-.74.12-2.52-1.41-2.79-.24S167.8,29.52,168.49,30.48Z"/><path class="cls-38" d="M68.33,33.69c1.45.49,2.31-.68,0-.89S66.8,33.19,68.33,33.69Z"/><path class="cls-39" d="M117.54,46.53s1.6,7.56,2.2,9.8A38.21,38.21,0,0,1,121.28,66c0,3.41-1.07,8.52-4.67,10.54a6.68,6.68,0,0,1-7-.35,10.27,10.27,0,0,1-4.4-7.32c-.65-4.39.45-9.21,1.15-13,.35-1.89,1-5.12,1.66-7.79a40.4,40.4,0,0,0,1.1-12.29l4.27,1.06,4.28,1.06A30,30,0,0,0,117.54,46.53Z"/><path class="cls-40" d="M113.18,38a31.76,31.76,0,0,1,4.09,1.32,30.45,30.45,0,0,0,0,8.32c0,.15,1.5,7.19,2.06,9.41a36.22,36.22,0,0,1,1.36,9.2c0,2.95-.94,7.15-3.69,9.3a6.54,6.54,0,0,1-.93.62,6.38,6.38,0,0,1-6.63-.48,9.88,9.88,0,0,1-4-6.34c-.05-.24-.09-.49-.13-.74-.62-4.27.43-8.8,1.12-12.53.34-1.82.92-4.86,1.58-7.38a44.68,44.68,0,0,0,1.19-11.59S113.13,38,113.18,38Z"/><path class="cls-41" d="M112.94,39.23c.07,0,3.74,1.14,3.91,1.59a31.59,31.59,0,0,0,.12,7.94c.07.3,1.41,6.83,1.93,9a34.19,34.19,0,0,1,1.18,8.76c-.07,2.83-1,6.74-3.67,8.73a5.9,5.9,0,0,1-.9.56,6.07,6.07,0,0,1-6.27-.59,9.72,9.72,0,0,1-3.81-6.13l-.12-.71c-.57-4.16.42-8.41,1.09-12,.33-1.74.88-4.59,1.5-7a51.39,51.39,0,0,0,1.27-10.9C109.25,38.41,112.84,39.23,112.94,39.23Z"/><path class="cls-42" d="M112.7,40.45c.11,0,3.48,1.17,3.74,1.85a32.4,32.4,0,0,0,.25,7.57c.09.46,1.31,6.47,1.79,8.65a32.07,32.07,0,0,1,1,8.31c-.12,2.72-1.07,6.35-3.66,8.17a5.22,5.22,0,0,1-.86.5,5.76,5.76,0,0,1-5.91-.71,9.44,9.44,0,0,1-3.58-5.92c0-.22-.08-.45-.11-.68-.54-4,.39-8,1-11.54.32-1.67.83-4.32,1.42-6.54,1.35-5.11,1.14-9.94,1.36-10.21A29.33,29.33,0,0,1,112.7,40.45Z"/><path class="cls-43" d="M112.46,41.67c.14,0,3.22,1.21,3.56,2.12a34.6,34.6,0,0,0,.38,7.2c.13.61,1.23,6.1,1.66,8.26a29.92,29.92,0,0,1,.82,7.87c-.16,2.59-1.14,5.94-3.64,7.6a6,6,0,0,1-.83.45,5.46,5.46,0,0,1-5.55-.84,9.16,9.16,0,0,1-3.36-5.7c0-.22-.07-.44-.1-.66-.51-3.91.37-7.59,1-11,.3-1.6.78-4,1.33-6.12,1.25-4.72,1.15-9.17,1.44-9.52A18.54,18.54,0,0,1,112.46,41.67Z"/><path class="cls-44" d="M112.22,42.89c.18,0,3,1.25,3.38,2.38a37.36,37.36,0,0,0,.52,6.83c.16.76,1.13,5.74,1.53,7.88a28.11,28.11,0,0,1,.63,7.42c-.21,2.48-1.2,5.55-3.63,7a4.79,4.79,0,0,1-.78.4,5.18,5.18,0,0,1-5.2-1,9,9,0,0,1-3.13-5.5c0-.21-.07-.42-.1-.63-.47-3.79.35-7.19,1-10.53.29-1.53.74-3.79,1.25-5.72,1.15-4.32,1.16-8.38,1.52-8.82C109.42,42.44,112,42.88,112.22,42.89Z"/><path class="cls-45" d="M112,44.11c.22,0,2.7,1.29,3.21,2.65a42.21,42.21,0,0,0,.65,6.45c.19.92,1,5.38,1.39,7.5a25.81,25.81,0,0,1,.45,7c-.25,2.36-1.27,5.14-3.62,6.46a4.12,4.12,0,0,1-.74.34,4.92,4.92,0,0,1-4.85-1.07,8.89,8.89,0,0,1-2.9-5.29c0-.19-.06-.39-.08-.59-.43-3.68.33-6.79,1-10,.28-1.46.7-3.52,1.17-5.3,1-3.93,1.17-7.6,1.61-8.12C109.47,43.78,111.68,44.1,112,44.11Z"/><path class="cls-46" d="M111.74,45.33a6.32,6.32,0,0,1,3,2.91,54.87,54.87,0,0,0,.78,6.09c.23,1.06,1,5,1.26,7.11a23.43,23.43,0,0,1,.27,6.54c-.3,2.23-1.34,4.74-3.6,5.89a6.22,6.22,0,0,1-.71.29A4.7,4.7,0,0,1,108.28,73a8.7,8.7,0,0,1-2.67-5.08c0-.19-.06-.38-.08-.57-.39-3.56.31-6.39.93-9.54.27-1.38.66-3.26,1.09-4.88,1-3.54,1.18-6.82,1.69-7.43C109.53,45.12,111.4,45.32,111.74,45.33Z"/><path class="cls-47" d="M111.5,46.55a6.3,6.3,0,0,1,2.85,3.18c.24,1.8.53,3.74.92,5.71.25,1.22.86,4.65,1.12,6.72a21.76,21.76,0,0,1,.1,6.1,6.8,6.8,0,0,1-3.6,5.33,5.3,5.3,0,0,1-.67.23,4.45,4.45,0,0,1-4.13-1.31,8.51,8.51,0,0,1-2.45-4.87c0-.18,0-.36-.07-.54-.36-3.44.29-6,.9-9,.26-1.31.61-3,1-4.46.85-3.15,1.19-6,1.78-6.74C109.58,46.47,111.11,46.53,111.5,46.55Z"/><path class="cls-48" d="M111.26,47.77a6.52,6.52,0,0,1,2.68,3.44c.31,1.63.67,3.44,1,5.34.28,1.38.77,4.29,1,6.34a19.22,19.22,0,0,1-.08,5.66,6.08,6.08,0,0,1-3.58,4.75,3.83,3.83,0,0,1-.64.18,4.25,4.25,0,0,1-3.77-1.42,8.36,8.36,0,0,1-2.23-4.66c0-.17,0-.35,0-.51-.33-3.32.26-5.58.86-8.55.25-1.23.57-2.72.93-4.05.75-2.75,1.2-5.25,1.86-6C109.64,47.81,110.82,47.75,111.26,47.77Z"/><path class="cls-49" d="M111,49c.37,0,1.65,1.44,2.5,3.7.4,1.46.81,3.14,1.18,5a49.65,49.65,0,0,1,.85,5.95,16.59,16.59,0,0,1-.26,5.21A5.43,5.43,0,0,1,111.72,73a4.29,4.29,0,0,1-.6.13,4.09,4.09,0,0,1-3.41-1.55,8.28,8.28,0,0,1-2-4.45c0-.16,0-.32,0-.48a25,25,0,0,1,.83-8.05c.24-1.16.53-2.45.86-3.63.65-2.36,1.2-4.47,1.94-5.35A2.33,2.33,0,0,1,111,49Z"/><path class="cls-50" d="M115.14,64.35c.18,3.48-.41,7.56-4,8.39a3.71,3.71,0,0,1-3.62-1.6,8.22,8.22,0,0,1-1.77-4.23c-.32-3.38.16-5.1.76-8,.91-4.36,2.27-8.77,4.28-8.7.41,0,1.39,1.47,2.32,4A34.68,34.68,0,0,1,115.14,64.35Z"/><path class="cls-51" d="M37.55,33c0-.22,1.05,4.85,1.55,7.27.41,2,1.33,4.4,1.25,7-.07,2.46-1.28,6.13-4.87,7.46a8.62,8.62,0,0,1-6.87-.5,7.55,7.55,0,0,1-4.13-5.46c-.52-3.21.28-5.46,1.18-8.3.8-2.55,1.95-4.57,2.6-6.52a25,25,0,0,0,1.27-4.19,11,11,0,0,0-.3-4.84l4.18.92,4.17.92A15.4,15.4,0,0,0,37.55,33Z"/><path class="cls-52" d="M33.14,26.66a33.4,33.4,0,0,1,4,1.15,15.55,15.55,0,0,0,.07,5.95c0-.08,1,4.66,1.45,7,.37,1.92,1.19,4.27,1,6.77a8.31,8.31,0,0,1-2.57,5.57,6.74,6.74,0,0,1-2.35,1.33,8.12,8.12,0,0,1-6.46-.76,7.27,7.27,0,0,1-3.76-5.17c-.47-3,.28-5.15,1.11-7.79.76-2.4,1.84-4.34,2.47-6.21a24.62,24.62,0,0,0,1.24-4,12.2,12.2,0,0,0-.16-4.59C29.24,25.86,33.08,26.66,33.14,26.66Z"/><path class="cls-53" d="M32.86,27.44c.07,0,3.65,1,3.79,1.37a16.12,16.12,0,0,0,.17,5.71c.06.06.94,4.48,1.36,6.73.34,1.86,1,4.14.78,6.51a7.61,7.61,0,0,1-2.66,5.17A6.35,6.35,0,0,1,34,54.09a7.7,7.7,0,0,1-6.06-1,7,7,0,0,1-3.4-4.88c-.41-2.82.29-4.84,1.06-7.28C26.32,38.66,27.33,36.8,28,35a24.21,24.21,0,0,0,1.2-3.79,15.44,15.44,0,0,0,0-4.33A36.72,36.72,0,0,1,32.86,27.44Z"/><path class="cls-54" d="M32.59,28.22c.11,0,3.38,1,3.6,1.59a16.94,16.94,0,0,0,.26,5.46c.09.21.9,4.3,1.27,6.48A19.65,19.65,0,0,1,38.27,48a7.11,7.11,0,0,1-2.76,4.79,6.35,6.35,0,0,1-2.23,1,7.28,7.28,0,0,1-5.66-1.28,6.71,6.71,0,0,1-3-4.59c-.35-2.63.29-4.52,1-6.76s1.6-3.89,2.2-5.61A25.11,25.11,0,0,0,29,31.92a21.07,21.07,0,0,0,.13-4.08A20.93,20.93,0,0,1,32.59,28.22Z"/><path class="cls-55" d="M32.31,29c.15,0,3.13,1.07,3.41,1.81A18.27,18.27,0,0,0,36.08,36c.12.35.85,4.11,1.18,6.21a17.15,17.15,0,0,1,.32,6,6.59,6.59,0,0,1-2.86,4.4,6.28,6.28,0,0,1-2.17.8,6.82,6.82,0,0,1-5.26-1.54,6.45,6.45,0,0,1-2.66-4.3,13.66,13.66,0,0,1,.93-6.25c.62-2,1.5-3.66,2.08-5.31a26.85,26.85,0,0,0,1.13-3.39A35.65,35.65,0,0,0,29,28.8C29.24,28.55,32.11,29,32.31,29Z"/><path class="cls-56" d="M32,29.78c.18,0,2.86,1.1,3.22,2a20,20,0,0,0,.46,5c.13.49.79,3.93,1.08,5.94a14.88,14.88,0,0,1,.08,5.7,5.7,5.7,0,0,1-5.06,4.64A6.4,6.4,0,0,1,27,51.27a6.3,6.3,0,0,1-2.3-4,12.91,12.91,0,0,1,.88-5.74c.58-1.81,1.38-3.43,1.95-5a27.43,27.43,0,0,0,1.09-3.18c.43-2,.21-3.32.41-3.57S31.78,29.76,32,29.78Z"/><path class="cls-57" d="M31.77,30.56c.21,0,2.59,1.14,3,2.26a23.33,23.33,0,0,0,.56,4.72c.16.64.74,3.75,1,5.68a13.22,13.22,0,0,1-.15,5.44,5.59,5.59,0,0,1-3,3.62,6.28,6.28,0,0,1-2.05.45,6,6,0,0,1-4.46-2.06A6.15,6.15,0,0,1,24.7,47a12.14,12.14,0,0,1,.82-5.22c.53-1.67,1.26-3.21,1.81-4.71.39-1.08.84-2.08,1.06-3,.44-1.83.31-3,.55-3.31S31.45,30.54,31.77,30.56Z"/><path class="cls-58" d="M31.49,31.34a5.83,5.83,0,0,1,2.84,2.48A29.33,29.33,0,0,0,35,38.3c.19.78.7,3.56.9,5.42a11.35,11.35,0,0,1-.39,5.16,5.08,5.08,0,0,1-3.15,3.23,6.16,6.16,0,0,1-2,.28,5.64,5.64,0,0,1-4.06-2.32,6,6,0,0,1-1.56-3.43,11.78,11.78,0,0,1,.75-4.71c.49-1.53,1.16-3,1.69-4.41.36-1,.79-1.93,1-2.78a25.69,25.69,0,0,1,.69-3.06C29.24,31.24,31.13,31.31,31.49,31.34Z"/><path class="cls-59" d="M31.22,32.11a5.6,5.6,0,0,1,2.64,2.71c.15,1.36.45,2.79.75,4.24a46.71,46.71,0,0,1,.81,5.15,10.14,10.14,0,0,1-.62,4.9A4.73,4.73,0,0,1,31.55,52a6.27,6.27,0,0,1-1.92.1A5.25,5.25,0,0,1,26,49.47a6.2,6.2,0,0,1-1.2-3.14,11.37,11.37,0,0,1,.7-4.2c.44-1.38,1-2.75,1.55-4.1.34-.92.75-1.79,1-2.59a16.37,16.37,0,0,1,.83-2.8C29.25,32.14,30.8,32.09,31.22,32.11Z"/><path class="cls-60" d="M30.94,32.89a5.66,5.66,0,0,1,2.46,2.94c.23,1.24.55,2.58.85,4A38.88,38.88,0,0,1,35,44.7a8.8,8.8,0,0,1-.86,4.63,4.38,4.38,0,0,1-3.34,2.46,6,6,0,0,1-1.86-.09,4.84,4.84,0,0,1-3.26-2.83A6.44,6.44,0,0,1,24.81,46a10.84,10.84,0,0,1,.64-3.68c.39-1.24.93-2.53,1.42-3.81.32-.84.69-1.64.95-2.38a11.55,11.55,0,0,1,1-2.55A3.11,3.11,0,0,1,30.94,32.89Z"/><path class="cls-61" d="M30.67,33.67c.36,0,1.54,1.29,2.26,3.16.31,1.12.66,2.39,1,3.74a29.9,29.9,0,0,1,.62,4.63,7.85,7.85,0,0,1-1.09,4.36A4.09,4.09,0,0,1,30,51.62a5.88,5.88,0,0,1-1.8-.26,4.53,4.53,0,0,1-2.86-3.09,7,7,0,0,1-.46-2.56,10.91,10.91,0,0,1,.57-3.17c.35-1.09.82-2.3,1.29-3.5.3-.76.64-1.5.92-2.19a10.58,10.58,0,0,1,1.12-2.29A2.59,2.59,0,0,1,30.67,33.67Z"/><path class="cls-50" d="M34,45.69c.05,2.51-1.68,6.09-4.86,5.77A4.33,4.33,0,0,1,25,47.67a11,11,0,0,1,.42-4.93c1-3.12,3-8.41,5-8.29.39,0,1.27,1.33,2.07,3.38A24,24,0,0,1,34,45.69Z"/><path class="cls-62" d="M106.76,67.5a5.9,5.9,0,0,0,1.18,5.21c2.19,2.18,3.85.72,3.26-.95s-1.89-1.94-2.27-3.4S107.55,65.46,106.76,67.5Z"/><path class="cls-38" d="M116.75,64.8a7.36,7.36,0,0,1-1.79,8c-1.14,1.34-2.48,1.18-2.61.72s1.85-.46,2.61-1.8.2-1.18.51-1.86,1.28-1.45.9-2.66S116.46,63.9,116.75,64.8Z"/><path class="cls-63" d="M148.22,85c-.05,1.61.4,8.14-.6,13.28a13.57,13.57,0,0,1-1.4,4,8,8,0,0,1-2.94,3.19c-3.88,2-7.7-.89-9-7.62-1.89-9.92,1.32-37.16,1.32-37.16h10.57c.1,1.18.32,3.81.69,7.06C147.53,73.52,148.34,81.17,148.22,85Z"/><path class="cls-64" d="M135.65,62.25s10.23.13,10.32.37c.12,1.15.34,3.65.69,6.71.61,5.52,1.34,12.74,1.21,16.46-.06,1.63.31,7.77-.67,12.58a12.74,12.74,0,0,1-1.37,3.72,7.45,7.45,0,0,1-2.83,3c-3.76,1.82-7.36-1-8.59-7.36a38.39,38.39,0,0,1-.57-6.2A221.76,221.76,0,0,1,135.65,62.25Z"/><path class="cls-65" d="M135.68,63.85c.08,0,9.9.26,10.08.76.13,1.11.35,3.47.67,6.36a131.49,131.49,0,0,1,1.09,15.61c-.07,1.66.24,7.4-.74,11.88a12.08,12.08,0,0,1-1.34,3.49,6.85,6.85,0,0,1-2.72,2.74c-3.64,1.64-7-1.14-8.2-7.09a36.42,36.42,0,0,1-.58-5.9C133.63,81.22,135.32,63.84,135.68,63.85Z"/><path class="cls-66" d="M135.72,65.46c.11,0,9.55.39,9.82,1.13.15,1.09.37,3.31.67,6a117.71,117.71,0,0,1,1,14.77c-.08,1.69.16,7-.81,11.18a11.42,11.42,0,0,1-1.31,3.27,6.25,6.25,0,0,1-2.61,2.5c-3.52,1.46-6.65-1.27-7.81-6.81A34.91,34.91,0,0,1,134,91.9C133.74,82.21,135.17,65.44,135.72,65.46Z"/><path class="cls-67" d="M135.75,67.07c.16,0,9.22.52,9.57,1.5.17,1.06.39,3.14.67,5.66a106.51,106.51,0,0,1,.83,13.93c-.09,1.72.07,6.66-.88,10.48a10.32,10.32,0,0,1-1.29,3,5.6,5.6,0,0,1-2.5,2.27c-3.38,1.27-6.29-1.39-7.41-6.54a31,31,0,0,1-.59-5.31C133.84,83.19,135,67,135.75,67.07Z"/><path class="cls-68" d="M135.79,68.67c.19,0,8.87.66,9.31,1.89.19,1,.41,3,.67,5.31a95.8,95.8,0,0,1,.7,13.08c-.1,1.75,0,6.29-.95,9.78a9.39,9.39,0,0,1-1.26,2.81,5.07,5.07,0,0,1-2.39,2c-3.26,1.08-5.94-1.52-7-6.28a29.34,29.34,0,0,1-.61-5C133.94,84.18,134.87,68.64,135.79,68.67Z"/><path class="cls-69" d="M135.82,70.28c.23,0,8.54.78,9.07,2.26.21,1,.42,2.8.66,5a83,83,0,0,1,.57,12.24c-.12,1.77-.1,5.92-1,9.08a8.57,8.57,0,0,1-1.23,2.58,4.59,4.59,0,0,1-2.28,1.82c-3.13.9-5.6-1.65-6.62-6a25.32,25.32,0,0,1-.61-4.73C134,85.17,134.72,70.24,135.82,70.28Z"/><path class="cls-70" d="M135.85,71.89c.27,0,8.2.91,8.82,2.63a43.8,43.8,0,0,1,.65,4.61,72.76,72.76,0,0,1,.45,11.4,37.56,37.56,0,0,1-1.09,8.38,7.82,7.82,0,0,1-1.2,2.36,4.17,4.17,0,0,1-2.17,1.58c-3,.73-5.25-1.77-6.23-5.73a23.89,23.89,0,0,1-.62-4.43C134.15,86.15,134.57,71.84,135.85,71.89Z"/><path class="cls-71" d="M135.89,73.49c.3,0,7.86,1.05,8.56,3a31.81,31.81,0,0,1,.65,4.26,64.31,64.31,0,0,1,.32,10.55A31.85,31.85,0,0,1,144.26,99a7,7,0,0,1-1.18,2.13,3.62,3.62,0,0,1-2.06,1.35c-2.87.55-4.91-1.89-5.83-5.46a21.79,21.79,0,0,1-.63-4.13C134.24,87.14,134.42,73.44,135.89,73.49Z"/><path class="cls-72" d="M135.92,75.1c.35,0,7.52,1.18,8.31,3.39a24,24,0,0,1,.65,3.91,56.62,56.62,0,0,1,.19,9.71,26.48,26.48,0,0,1-1.23,7,6.26,6.26,0,0,1-1.15,1.9,3.29,3.29,0,0,1-1.95,1.13c-2.74.37-4.57-2-5.44-5.19a20.22,20.22,0,0,1-.63-3.84C134.34,88.13,134.27,75,135.92,75.1Z"/><path class="cls-73" d="M136,76.71c.39,0,7.18,1.31,8.07,3.77a18.9,18.9,0,0,1,.64,3.55,50.53,50.53,0,0,1,.06,8.87,21.2,21.2,0,0,1-1.3,6.28,5.55,5.55,0,0,1-1.12,1.67,2.93,2.93,0,0,1-1.84.9c-2.61.21-4.24-2.14-5.05-4.92a18.38,18.38,0,0,1-.64-3.55C134.45,89.11,134.12,76.65,136,76.71Z"/><path class="cls-50" d="M144.37,93.69c-.33,3.47-1.35,7.65-4.2,7.69-3.67.06-5-5-5.29-7.9-.32-3.38-.9-15.23,1.11-15.17.42,0,6.84,1.44,7.81,4.15C144.69,84.93,144.76,89.7,144.37,93.69Z"/><path class="cls-74" d="M17.26,82.83c.58,5.3.56,7.35.16,9.93-.22,1.45-1.13,3.58-2.7,3.94s-3.9-.3-4.42-4.71c-.83-7.11,1.63-26.84,1.63-26.84l3.68.24c.05.84.1,2.63.29,5C16.22,74.52,16.93,79.74,17.26,82.83Z"/><path class="cls-75" d="M11.85,66.32a26.78,26.78,0,0,1,3.71.49c0,.8.11,2.47.28,4.62.31,3.88,1,8.73,1.27,11.65.52,4.9.49,6.84.13,9.27-.23,1.54-1.1,3.71-2.66,4s-3.77-.47-4.25-4.67C9.56,85,11.76,66.32,11.85,66.32Z"/><path class="cls-76" d="M11.78,67.49s3.64.39,3.73.74c.05.76.11,2.3.28,4.28.29,3.59.87,8.07,1.16,10.82a31.8,31.8,0,0,1,.11,8.61c-.23,1.63-1.07,3.83-2.62,4.12s-3.64-.64-4.09-4.63C9.65,85.17,11.6,67.48,11.78,67.49Z"/><path class="cls-77" d="M11.71,68.66c.06,0,3.61.46,3.74,1,.07.72.13,2.13.28,3.95.28,3.29.8,7.4,1.06,10a30.15,30.15,0,0,1,.09,8c-.23,1.73-1,4-2.58,4.22s-3.51-.83-3.92-4.6C9.73,85.32,11.44,68.65,11.71,68.66Z"/><path class="cls-78" d="M11.64,69.84c.08,0,3.59.53,3.76,1.23s.14,2,.28,3.61c.26,3,.72,6.74.95,9.15a29.54,29.54,0,0,1,.07,7.29c-.23,1.82-1,4.08-2.53,4.31s-3.39-1-3.76-4.56C9.82,85.46,11.28,69.82,11.64,69.84Z"/><path class="cls-79" d="M11.57,71c.1,0,3.56.6,3.78,1.48.07.63.14,1.8.27,3.27.25,2.72.65,6.08.86,8.32a28.54,28.54,0,0,1,0,6.63c-.23,1.91-1,4.21-2.49,4.4s-3.26-1.18-3.6-4.52C9.91,85.61,11.11,71,11.57,71Z"/><path class="cls-80" d="M11.5,72.18c.12,0,3.54.67,3.8,1.73.08.59.15,1.63.27,2.93.22,2.43.57,5.42.75,7.49a27.47,27.47,0,0,1,0,6c-.23,2-1,4.33-2.46,4.49-1.66.19-3.12-1.35-3.43-4.48C10,85.75,11,72.16,11.5,72.18Z"/><path class="cls-81" d="M11.43,73.35c.13,0,3.51.75,3.82,2,.08.55.15,1.47.26,2.6.21,2.13.5,4.75.65,6.65a26.58,26.58,0,0,1,0,5.31c-.23,2.1-.94,4.45-2.42,4.59-1.69.16-3-1.53-3.26-4.45C10.09,85.9,10.79,73.32,11.43,73.35Z"/><path class="cls-82" d="M11.36,74.53c.15,0,3.49.81,3.84,2.22.09.51.16,1.3.26,2.26.19,1.85.43,4.09.54,5.82a26.16,26.16,0,0,1,0,4.64c-.22,2.2-.91,4.58-2.37,4.69-1.74.13-2.86-1.71-3.11-4.41C10.18,86,10.63,74.49,11.36,74.53Z"/><path class="cls-83" d="M11.29,75.7c.17,0,3.47.89,3.86,2.47.09.46.17,1.13.25,1.92.18,1.56.36,3.43.45,5a25.7,25.7,0,0,1,0,4c-.21,2.3-.88,4.7-2.33,4.78-1.77.1-2.74-1.88-2.94-4.37C10.26,86.19,10.46,75.66,11.29,75.7Z"/><path class="cls-84" d="M11.22,76.87c.19,0,3.44,1,3.88,2.72.09.42.17,1,.25,1.59.16,1.26.29,2.76.34,4.15a27.57,27.57,0,0,1-.06,3.32c-.19,2.39-.85,4.82-2.29,4.88-1.8.07-2.61-2.06-2.78-4.35C10.34,86.34,10.3,76.83,11.22,76.87Z"/><path class="cls-50" d="M15.45,88.24c-.17,2.48-.82,4.94-2.24,5-1.84,0-2.48-2.24-2.62-4.31-.16-2.42-.45-10.9.56-10.86.21,0,3.42,1,3.9,3A25.21,25.21,0,0,1,15.45,88.24Z"/><path class="cls-62" d="M135.89,95.89a6,6,0,0,0,1.18,5.22c2.19,2.18,3.85.72,3.26-1s-1.89-1.93-2.27-3.39S136.68,93.86,135.89,95.89Z"/><path class="cls-85" d="M36.05,52.65c.23.64,1.3.51,2.15-.52a10.07,10.07,0,0,0,1.46-4.94c.12-1.72-1-.52-.89.51a5,5,0,0,1-.92,2.95C37.07,51.66,35.85,52.07,36.05,52.65Z"/><path class="cls-85" d="M34.8,53.29c-1.12,1,.12,1,.7.47S35.47,52.7,34.8,53.29Z"/><path class="cls-13" d="M135.15,43.29h0c-.78-4.58-2.29-8.12-5-9.85-6.41-4.1-9.82-2.84-11.49.93.07-.28.83-3.45,5.26-5.3,4.62-1.92,9.37,3.41,10.58,6.67A18.14,18.14,0,0,1,135.15,43.29Z"/><g class="cls-86"><path class="cls-13" d="M135.15,43.29h0a22.22,22.22,0,0,0-1.74-5.92,9.28,9.28,0,0,0-3.26-3.93,16.9,16.9,0,0,0-5.05-2.34,5.77,5.77,0,0,0-3.59.16c-1.27.54-1.05,0,0-.85a10.07,10.07,0,0,1,2.39-1.34,9.88,9.88,0,0,1,4.49-.78,6.47,6.47,0,0,1,4.14,1.87,11,11,0,0,1,2.69,7.09A35.93,35.93,0,0,1,135.15,43.29Z"/><path class="cls-87" d="M121.62,30.41A8.9,8.9,0,0,1,124,29.16a9.6,9.6,0,0,1,4.35-.67,6.57,6.57,0,0,1,4.15,1.91,10.81,10.81,0,0,1,2.66,6.77,32.85,32.85,0,0,1,0,5.65h0a23.74,23.74,0,0,0-.85-3.42,20.3,20.3,0,0,0-.93-2.27,9.39,9.39,0,0,0-3.2-3.77c-.61-.39-1.19-.73-1.75-1a14.14,14.14,0,0,0-3.13-1.24,6.72,6.72,0,0,0-2-.22,4.89,4.89,0,0,0-1.52.31C120.51,31.65,120.66,31.18,121.62,30.41Z"/><path class="cls-88" d="M121.72,30.41A8.43,8.43,0,0,1,124,29.26a9.24,9.24,0,0,1,4.22-.56,6.77,6.77,0,0,1,4.15,1.94A10.62,10.62,0,0,1,135,37.1a31.83,31.83,0,0,1,0,5.25h0a18.39,18.39,0,0,0-.87-3.28,19.46,19.46,0,0,0-1-2.17,9.34,9.34,0,0,0-3.14-3.62q-.87-.56-1.68-1a13.69,13.69,0,0,0-3-1.22,7,7,0,0,0-1.9-.23,4.81,4.81,0,0,0-1.47.26C120.78,31.52,120.85,31.1,121.72,30.41Z"/><path class="cls-89" d="M121.82,30.41A7.68,7.68,0,0,1,124,29.36a9.16,9.16,0,0,1,4.09-.46,6.92,6.92,0,0,1,4.15,2A10.49,10.49,0,0,1,134.87,37a25.76,25.76,0,0,1,.09,4.84h0a16,16,0,0,0-.9-3.15,19.74,19.74,0,0,0-1-2.08A9.44,9.44,0,0,0,130,33.2c-.55-.36-1.1-.68-1.63-1A13.5,13.5,0,0,0,125.47,31a7.35,7.35,0,0,0-1.83-.25,4.92,4.92,0,0,0-1.43.23C121,31.39,121,31,121.82,30.41Z"/><path class="cls-90" d="M121.92,30.41a6.86,6.86,0,0,1,2.16-.95,8.85,8.85,0,0,1,4-.35,7.1,7.1,0,0,1,4.14,2A10.32,10.32,0,0,1,134.74,37a24.62,24.62,0,0,1,.16,4.44h0a14.1,14.1,0,0,0-.93-3,17.14,17.14,0,0,0-1-2,9.58,9.58,0,0,0-3-3.3c-.53-.34-1-.65-1.57-.93A13.9,13.9,0,0,0,125.59,31a7.28,7.28,0,0,0-1.76-.26,4.66,4.66,0,0,0-1.38.18C121.31,31.26,121.24,31,121.92,30.41Z"/><path class="cls-91" d="M122,30.42a6.59,6.59,0,0,1,2.11-.86,8.7,8.7,0,0,1,3.83-.25,7.33,7.33,0,0,1,4.14,2.07,10.33,10.33,0,0,1,2.53,5.53,21.82,21.82,0,0,1,.22,4h0a12.09,12.09,0,0,0-1-2.88,19.74,19.74,0,0,0-1-1.88,9.83,9.83,0,0,0-3-3.13c-.51-.33-1-.63-1.51-.91A13.68,13.68,0,0,0,125.71,31a6.73,6.73,0,0,0-1.69-.27,4.77,4.77,0,0,0-1.34.13C121.58,31.13,121.43,30.88,122,30.42Z"/><path class="cls-92" d="M122.11,30.42a6.31,6.31,0,0,1,2-.76,8.44,8.44,0,0,1,3.7-.14,7.61,7.61,0,0,1,4.14,2.1,10.36,10.36,0,0,1,2.49,5.22,19.74,19.74,0,0,1,.29,3.64h0a10.63,10.63,0,0,0-1-2.76,18.36,18.36,0,0,0-1-1.77,10,10,0,0,0-2.9-3c-.48-.32-1-.61-1.45-.87A13.47,13.47,0,0,0,125.83,31a7.36,7.36,0,0,0-1.62-.3,5.3,5.3,0,0,0-1.29.09C121.85,31,121.63,30.8,122.11,30.42Z"/><path class="cls-93" d="M122.21,30.42a6,6,0,0,1,2-.66,8.38,8.38,0,0,1,3.57,0,7.77,7.77,0,0,1,4.13,2.14,10.45,10.45,0,0,1,2.46,4.9,16.17,16.17,0,0,1,.35,3.24h0a9.83,9.83,0,0,0-1-2.62,17.8,17.8,0,0,0-1-1.68,10.4,10.4,0,0,0-2.83-2.82c-.46-.3-.93-.58-1.4-.83A13.19,13.19,0,0,0,126,31a7.54,7.54,0,0,0-1.56-.31,5.11,5.11,0,0,0-1.25,0C122.12,30.86,121.82,30.73,122.21,30.42Z"/><path class="cls-94" d="M122.31,30.42a6.08,6.08,0,0,1,1.93-.56,8.32,8.32,0,0,1,3.43.07,8,8,0,0,1,4.14,2.19,10.76,10.76,0,0,1,2.43,4.59,13.71,13.71,0,0,1,.41,2.83h0a9.31,9.31,0,0,0-1-2.49,14.37,14.37,0,0,0-1-1.57,11,11,0,0,0-2.77-2.66c-.44-.29-.88-.56-1.34-.81a13.68,13.68,0,0,0-2.4-1.06,7.61,7.61,0,0,0-1.49-.33,6,6,0,0,0-1.2,0C122.38,30.72,122,30.66,122.31,30.42Z"/><path class="cls-95" d="M122.41,30.43a5.53,5.53,0,0,1,1.87-.47,8.41,8.41,0,0,1,3.3.18,8.2,8.2,0,0,1,4.14,2.22,11.53,11.53,0,0,1,2.39,4.28,12.94,12.94,0,0,1,.48,2.44h0a8.54,8.54,0,0,0-1.07-2.35,16.06,16.06,0,0,0-1-1.48,12,12,0,0,0-2.71-2.5c-.41-.27-.84-.53-1.28-.77a13.57,13.57,0,0,0-2.3-1,8.53,8.53,0,0,0-1.42-.34,5.84,5.84,0,0,0-1.16-.05C122.65,30.59,122.21,30.58,122.41,30.43Z"/><path class="cls-96" d="M122.5,30.43a6.18,6.18,0,0,1,1.82-.37,8.2,8.2,0,0,1,3.17.29,8.46,8.46,0,0,1,4.13,2.26,12.75,12.75,0,0,1,2.37,4,10.52,10.52,0,0,1,.53,2h0a7.84,7.84,0,0,0-1.09-2.22,13.86,13.86,0,0,0-1-1.38,13,13,0,0,0-2.66-2.34c-.38-.26-.79-.51-1.22-.75a13.76,13.76,0,0,0-2.19-1,8.7,8.7,0,0,0-1.35-.35,6.52,6.52,0,0,0-1.11-.1C122.92,30.45,122.41,30.5,122.5,30.43Z"/><path class="cls-26" d="M122.6,30.43a8.61,8.61,0,0,1,4.8.12,8.88,8.88,0,0,1,4.13,2.3,15.33,15.33,0,0,1,2.33,3.66,9.44,9.44,0,0,1,.6,1.63,7.72,7.72,0,0,0-1.12-2.09,14.62,14.62,0,0,0-4.81-4.17,12.15,12.15,0,0,0-3.37-1.36A7.5,7.5,0,0,0,122.6,30.43Z"/></g><g class="cls-86"><path class="cls-13" d="M28.76,29.22a7.6,7.6,0,0,0-1.47-3.89,5,5,0,0,0-3.57-2.09A6.59,6.59,0,0,0,19,24.3,12.78,12.78,0,0,0,16.27,27c-.4.48-.42,0-.15-.92a11,11,0,0,1,1.64-3.15,7.58,7.58,0,0,1,3.12-2.41,6.41,6.41,0,0,1,3.89-.29,5.3,5.3,0,0,1,4.13,3.57,8.57,8.57,0,0,1,.31,3.94A5.27,5.27,0,0,1,28.76,29.22Z"/><path class="cls-87" d="M18,22.89a7.43,7.43,0,0,1,3.05-2.24,6.37,6.37,0,0,1,3.07-.35,5.1,5.1,0,0,1,.68.13,5.22,5.22,0,0,1,4,3.45,8.33,8.33,0,0,1,.34,3.7,4.94,4.94,0,0,1-.4,1.39,6.75,6.75,0,0,0-.4-1.74,8.59,8.59,0,0,0-1.13-2A5.09,5.09,0,0,0,25.88,24a5.33,5.33,0,0,0-2.21-.77,6.88,6.88,0,0,0-1.69,0A6.43,6.43,0,0,0,19,24.26a7.79,7.79,0,0,0-1.08.85,17,17,0,0,0-1.61,1.75c-.36.44-.34-.08,0-.95A10.78,10.78,0,0,1,18,22.89Z"/><path class="cls-88" d="M18.25,22.85a7.21,7.21,0,0,1,3-2.06,6.39,6.39,0,0,1,2.95-.28c.22,0,.44.08.66.13A5.14,5.14,0,0,1,28.66,24,7.73,7.73,0,0,1,29,27.42a4.45,4.45,0,0,1-.34,1.3A5.63,5.63,0,0,0,28.25,27,8.2,8.2,0,0,0,27.1,25.1a5.05,5.05,0,0,0-1.31-1.18,5.32,5.32,0,0,0-2.17-.74,6.54,6.54,0,0,0-1.65,0,6.46,6.46,0,0,0-2.9,1.06A8.05,8.05,0,0,0,18,25a15.43,15.43,0,0,0-1.6,1.7c-.32.39-.26-.14.09-1A10.93,10.93,0,0,1,18.25,22.85Z"/><path class="cls-89" d="M18.5,22.81a7,7,0,0,1,2.91-1.88,6.31,6.31,0,0,1,2.83-.21c.21,0,.42.08.63.14a5.08,5.08,0,0,1,3.67,3.2,7.35,7.35,0,0,1,.39,3.21,4.71,4.71,0,0,1-.28,1.21,5.39,5.39,0,0,0-.47-1.63A8.09,8.09,0,0,0,27,25a5.19,5.19,0,0,0-1.31-1.12,5.12,5.12,0,0,0-2.12-.71,6.86,6.86,0,0,0-1.63,0,6.53,6.53,0,0,0-2.83,1,11.12,11.12,0,0,0-1.05.8,14,14,0,0,0-1.58,1.64c-.29.35-.18-.18.2-1A10.76,10.76,0,0,1,18.5,22.81Z"/><path class="cls-90" d="M18.75,22.78a6.83,6.83,0,0,1,2.83-1.71,6.11,6.11,0,0,1,2.72-.13,4.29,4.29,0,0,1,.6.13,5,5,0,0,1,3.52,3.08,6.94,6.94,0,0,1,.42,3,4.09,4.09,0,0,1-.23,1.12,4.73,4.73,0,0,0-.5-1.57,8,8,0,0,0-1.19-1.79,5,5,0,0,0-1.31-1.07,5.38,5.38,0,0,0-2.08-.69,7,7,0,0,0-1.59,0,6.62,6.62,0,0,0-2.77,1,9.4,9.4,0,0,0-1,.78,13.21,13.21,0,0,0-1.57,1.58c-.25.3-.1-.24.31-1A10.73,10.73,0,0,1,18.75,22.78Z"/><path class="cls-91" d="M19,22.74a6.61,6.61,0,0,1,2.76-1.53,6.17,6.17,0,0,1,2.6-.06c.19,0,.38.08.57.13a5,5,0,0,1,3.37,3A6.77,6.77,0,0,1,28.75,27a3.82,3.82,0,0,1-.18,1A4.47,4.47,0,0,0,28,26.47a7.93,7.93,0,0,0-1.21-1.72,5.49,5.49,0,0,0-1.31-1,5.56,5.56,0,0,0-2-.65,6.19,6.19,0,0,0-1.55,0,6.53,6.53,0,0,0-2.72,1,8.82,8.82,0,0,0-1,.75,12,12,0,0,0-1.56,1.52c-.22.27,0-.28.42-1.08A10.73,10.73,0,0,1,19,22.74Z"/><path class="cls-92" d="M19.24,22.7a6.23,6.23,0,0,1,2.7-1.34,6.09,6.09,0,0,1,2.48,0,4.27,4.27,0,0,1,.54.13,4.93,4.93,0,0,1,3.22,2.84,6.18,6.18,0,0,1,.47,2.47,3.64,3.64,0,0,1-.12.94A4.18,4.18,0,0,0,28,26.27a7.51,7.51,0,0,0-1.23-1.63,5.44,5.44,0,0,0-1.3-1,5.64,5.64,0,0,0-2-.62,6.36,6.36,0,0,0-1.51,0,6.8,6.8,0,0,0-2.66,1,9.87,9.87,0,0,0-1,.72,11,11,0,0,0-1.55,1.47c-.18.22.06-.34.54-1.12A10.42,10.42,0,0,1,19.24,22.7Z"/><path class="cls-93" d="M19.49,22.67a5.9,5.9,0,0,1,5-1.1,3.8,3.8,0,0,1,.51.14,4.9,4.9,0,0,1,3.07,2.71,6.06,6.06,0,0,1,.5,2.23,3.21,3.21,0,0,1-.06.84,4.16,4.16,0,0,0-.6-1.41,7.32,7.32,0,0,0-1.26-1.56,5.53,5.53,0,0,0-1.29-.91,5.69,5.69,0,0,0-2-.59,6.12,6.12,0,0,0-1.48,0,6.84,6.84,0,0,0-2.6,1,11.42,11.42,0,0,0-1,.69,12.46,12.46,0,0,0-1.54,1.41c-.14.18.14-.39.65-1.15A10.33,10.33,0,0,1,19.49,22.67Z"/><path class="cls-94" d="M19.74,22.63a5.81,5.81,0,0,1,2.55-1,6.16,6.16,0,0,1,2.25.14l.49.14a5,5,0,0,1,2.91,2.59,6,6,0,0,1,.53,2,3.17,3.17,0,0,1,0,.75,4.06,4.06,0,0,0-.63-1.35,6.84,6.84,0,0,0-1.28-1.48A5.86,5.86,0,0,0,23.34,23a5.9,5.9,0,0,0-1.45,0,6.89,6.89,0,0,0-2.54.95c-.35.21-.67.44-1,.66A10.81,10.81,0,0,0,16.86,26a5.22,5.22,0,0,1,.76-1.18A9.74,9.74,0,0,1,19.74,22.63Z"/><path class="cls-95" d="M20,22.59a5.74,5.74,0,0,1,2.48-.81A6.3,6.3,0,0,1,24.6,22l.46.14a5,5,0,0,1,2.76,2.47,6.2,6.2,0,0,1,.56,1.74,3.16,3.16,0,0,1,0,.65,4,4,0,0,0-.67-1.29,6.38,6.38,0,0,0-1.29-1.41,5.87,5.87,0,0,0-1.29-.8A5.59,5.59,0,0,0,23.29,23a5.19,5.19,0,0,0-1.41,0,6.7,6.7,0,0,0-2.48.93c-.34.2-.66.42-1,.63a13.43,13.43,0,0,0-1.51,1.3,9.47,9.47,0,0,1,.88-1.21A9.27,9.27,0,0,1,20,22.59Z"/><path class="cls-96" d="M20.24,22.56a5.5,5.5,0,0,1,2.41-.64,6.82,6.82,0,0,1,2,.28,3.12,3.12,0,0,1,.43.15,5.08,5.08,0,0,1,2.61,2.34,6.83,6.83,0,0,1,.59,1.49,3.57,3.57,0,0,1,.09.57,4.2,4.2,0,0,0-.7-1.24,6.27,6.27,0,0,0-1.31-1.33,6.16,6.16,0,0,0-1.29-.75,5.65,5.65,0,0,0-1.84-.5,5.83,5.83,0,0,0-1.37,0,6.9,6.9,0,0,0-2.42.92,8.47,8.47,0,0,0-.94.61A12.59,12.59,0,0,0,17,25.74a15.83,15.83,0,0,1,1-1.25A8.75,8.75,0,0,1,20.24,22.56Z"/><path class="cls-26" d="M17.08,25.62a16.86,16.86,0,0,1,1.1-1.29,8.4,8.4,0,0,1,2.31-1.81,5.69,5.69,0,0,1,4.23-.11,5.23,5.23,0,0,1,2.86,2.37,7.21,7.21,0,0,1,.77,1.72,5.17,5.17,0,0,0-.74-1.19A6.44,6.44,0,0,0,25,23.36,5.55,5.55,0,0,0,21.86,23a8.45,8.45,0,0,0-3.29,1.48A11.69,11.69,0,0,0,17.08,25.62Z"/></g></g></g></svg>