<svg xmlns="http://www.w3.org/2000/svg" viewBox="0 0 485.22 270"><defs><style>.cls-1{fill:#ffc567;}.cls-2{fill:#fc7da8;}</style></defs><g id="图层_2" data-name="图层 2"><g id="_ÎÓÈ_1" data-name="—ÎÓÈ_1"><path class="cls-1" d="M135.3,24.05c-14.29,7.69-21.87,26-17.18,41.57s21.15,26.62,37.31,25.12c4.66-.43,11.15-.59,12,4,.69,3.59-3.21,6.29-6.68,7.44a40.61,40.61,0,0,1-30.34-2.09c-3.47-1.71-7.38-4-10.94-2.45-3.26,1.41-4.5,5.43-4.55,9-.15,10.47,6.85,20.25,16.12,25.15s20.36,5.42,30.63,3.34c14.13-2.86,27.93-11.32,33.47-24.63s0-31.3-13.49-36.31c-5.62-2.08-11.78-1.83-17.74-2.37S151.61,69.65,147.86,65s-3-13,2.56-15.22c7-2.75,13.34,5.56,20.67,7.38a13,13,0,0,0,14.63-7.45c3.5-8.64-3.91-15.83-9.92-20.82a37.85,37.85,0,0,0-25.52-8.78A34.22,34.22,0,0,0,135.3,24.05Z"/><path class="cls-1" d="M204.08,89.32c1.74,9.8,3.93,19.71,8.93,28.32s13.27,15.81,23.11,17.27c14.07,2.09,27.63-8.2,34-20.94s7.1-27.42,7.72-41.63l1.26-28.45c.31-6.91.29-14.7-4.6-19.59-4.64-4.63-12.56-4.82-18.23-1.52S247,32.19,245.34,38.54s-1.62,13-1.58,19.55q.08,13.09.17,26.18c0,1.62.86,5.62-1.43,7.92a5,5,0,0,1-4.38,1.47c-.74-.16-2.82-.84-4.56-5.6-3.14-8.56-.9-18.52-.3-30.81.52-10.55.72-15.94-2.36-22-1.08-2.12-5.13-10-13.53-11.89A16.86,16.86,0,0,0,205.67,25a17.84,17.84,0,0,0-7,8.06c-3.87,8.14-1.15,14.83,2.25,34.89C203.19,81.63,202.44,80.05,204.08,89.32Z"/><path class="cls-1" d="M292.61,127.86c.86,1.39,3.48,5.6,8.42,7.06a15.66,15.66,0,0,0,14-3.27c9.86-8.47.15-32.69,4.35-34.07,1.52-.5,3.74,2.36,5.67,4.86,4.81,6.21,4.71,10.28,8.1,17.81,3.07,6.84,6.16,13.7,12.17,15.08,4.81,1.11,9.34-1.79,10.18-2.34a18.12,18.12,0,0,0,6.8-8.69c5.79-14,4.3-35.81,6.06-60.85,0,0,1.14-9.63-.73-27-.27-2.52-.87-7.43-4.54-11.4-1-1.12-4.26-4.62-8.57-4.29-4.68.36-7.46,5-8.56,6.86s-2.2,4.31-2.75,10c-1.15,11.78,2.26,17.71-.81,20.12-2.09,1.63-5.42.59-6.82.15-3.95-1.24-7.06-4.34-15.39-19.44-4.47-8.1-5.87-11.38-10.22-14.27-1.71-1.14-5.31-3.46-9.42-2.57-.69.15-3.81.91-6.86,5.14-3.74,5.21-3.75,11.86-3.61,25,.08,6.74.1,7.8.3,23.13.29,22.93.29,23.18.29,23.2h0C289.2,112.22,288.33,121,292.61,127.86Z"/><path class="cls-2" d="M56.16,157C41.87,164.7,34.29,183,39,198.58S60.13,225.2,76.29,223.7c4.66-.43,11.15-.6,12,4,.69,3.58-3.22,6.29-6.69,7.44a40.59,40.59,0,0,1-30.33-2.09c-3.47-1.71-7.39-4-10.94-2.45-3.26,1.41-4.5,5.43-4.55,9-.16,10.48,6.85,20.26,16.11,25.15s20.37,5.43,30.64,3.35c14.13-2.86,27.92-11.32,33.46-24.63s0-31.3-13.48-36.31c-5.62-2.08-11.78-1.84-17.75-2.37s-12.33-2.17-16.08-6.84-3-13.05,2.56-15.22c7-2.75,13.34,5.56,20.67,7.38a13,13,0,0,0,14.63-7.45c3.5-8.64-3.92-15.83-9.92-20.82A37.76,37.76,0,0,0,71.13,153,34.34,34.34,0,0,0,56.16,157Z"/><path class="cls-2" d="M279.08,262.08c.87,1.43,3.49,5.75,8.43,7.24,4.74,1.44,10.37-.19,13.94-3.35,9.86-8.69.16-33.52,4.36-34.94,1.52-.51,3.73,2.43,5.67,5,4.81,6.37,4.7,10.53,8.09,18.26,3.08,7,6.17,14,12.18,15.47,4.81,1.13,9.33-1.85,10.18-2.4a18.59,18.59,0,0,0,6.79-8.92c5.8-14.35,4.31-36.72,6.06-62.39,0,0,1.15-9.88-.72-27.69-.27-2.58-.87-7.62-4.54-11.69-1-1.14-4.27-4.73-8.57-4.39-4.68.37-7.46,5.13-8.57,7-1,1.75-2.19,4.42-2.74,10.26-1.15,12.09,2.26,18.17-.82,20.63-2.08,1.68-5.41.61-6.82.16-3.94-1.27-7.05-4.45-15.38-19.93-4.47-8.31-5.87-11.67-10.22-14.64-1.71-1.16-5.31-3.54-9.42-2.63-.69.15-3.82.93-6.86,5.27-3.75,5.34-3.75,12.17-3.61,25.6.07,6.9.1,8,.29,23.71.29,23.52.3,23.78.3,23.79h0C275.68,246.05,274.81,255,279.08,262.08Z"/><path class="cls-2" d="M231.91,250c.18,3.59.35,7.26,1.92,10.6a12.16,12.16,0,0,0,9,6.95c5.31.77,10.49-2.56,12.8-6.67s2.4-8.81,2.45-13.36q.39-33.18.77-66.35c.09-7.69-.18-16.19-6.38-21.81a20.31,20.31,0,0,0-15.21-4.75c-1.7.16-5.73.47-8.8,3-4,3.31-3.9,8.35-3.56,15.91.18,4.07.83,6.34,1.33,10.51q1.28,10.51,2.32,21.05t1.84,21.19q.79,10.55,1.35,21.11C231.82,248.28,231.86,249.15,231.91,250Z"/><path class="cls-2" d="M124.51,198.41c-.3,32.78-3.43,49.88,6.06,61.67,1.76,2.18,5.44,6.69,11,7a13.62,13.62,0,0,0,11.72-5.76c2.7-3.92,3.12-9,2.67-13.71s-1.66-9.38-1.9-14.13.65-9.83,3.84-13.36,9.13-4.78,12.8-1.75c4,3.28,3.56,9.33,3.06,14.45a165.51,165.51,0,0,0-.6,23.35c.22,5,1.23,7.32,3.06,9.15,3.71,3.72,9.53,3,10.52,2.86s5.25-.84,9.87-5.75c5.49-5.86,7.16-13.16,8.22-21.38,1-7.83,1.61-17.6.2-36.85a151.08,151.08,0,0,0-5.33-31.67c-1.71-6.83-4.63-14.48-11.27-16.82-5.47-1.93-12.31,1.21-15.69,5.58-3.73,4.83-3.48,11.61-3.27,17.27.12,3.17.58,6,0,10.69-.78,6.34-2.39,7.69-3.29,8.22a5.78,5.78,0,0,1-5.75,0c-2.75-1.75-2.18-5.71-2.93-14.29-.63-7.22-1.12-11.13-2.74-15.66-1.79-5-5-9.69-9.71-12.18s-10.72-1.53-14.57.9C123,161,124.75,172.24,124.51,198.41Z"/><path class="cls-2" d="M445.62,188.17c-2.41-7.28-8.64-26.13-27.48-32.67-14.93-5.18-30.91-.24-40.63,9.19-11,10.65-12,25.17-13.63,46.61a79.58,79.58,0,0,0,1.39,22.75c1.42,7.47,4.23,14.79,9,20.52,5,6,12,9.92,19.46,12.05a56.29,56.29,0,0,0,9,1.78,69.55,69.55,0,0,0,18.73-.63c5.21-.83,7.77-1.35,10.55-2.45,6.61-2.63,12.51-8,13.89-15s-3.1-15.12-10.14-16.16c-4.52-.67-8.91,1.46-13.31,2.69-6.21,1.73-9.56,1.85-13.38,1-2-.45-9.22-2.06-11.09-7.94-1.44-4.52.67-10.3,4.3-11.9,2.71-1.19,5.19.42,9.21,1.91,3,1.11,17.64,6.48,26.73.7,4.9-3.12,8-8.78,9.06-14.69C447.61,204,448.86,198,445.62,188.17Zm-20.2,11.24a7.86,7.86,0,0,1-7.66,2.44,17.49,17.49,0,0,1-7.4-4c-1.52-1.24-3-2.72-3.44-4.69a5.87,5.87,0,0,1,1.53-5,8.45,8.45,0,0,1,4.62-2.42,11.15,11.15,0,0,1,5.38.31,13.05,13.05,0,0,1,7,5.25C427,193.61,427.15,197.23,425.42,199.41Z"/><path class="cls-1" d="M22.06,102.56c-11.78,0-16.7,1.44-19.52,5.22-3.64,4.87-3.27,12.87.47,17.81,3.1,4.08,7.72,5.5,13.71,6.25,19.5,2.46,39.15,4.22,58.8,3.54,1.37,0,6.39.41,9.85-2.6a5.69,5.69,0,0,0,2.14-3.44c.33-2.42-1.58-4.5-2.34-5.33C65.59,102.69,22.06,102.56,22.06,102.56Z"/><path class="cls-1" d="M93.37,15.82C88.32,5.2,84.93,1.36,80.44.3,74.65-1.07,67.88,2.39,65.21,7.7c-2.2,4.38-1.44,9.09.49,14.77C72,41,78.92,59.35,88,76.76c.63,1.21,2.4,5.91,6.5,7.85a5.63,5.63,0,0,0,3.9.57C100.63,84.53,101.6,82,102,81,112,55,93.37,15.82,93.37,15.82Z"/><path class="cls-1" d="M11.68,55.24C11.32,75.69,42.6,89,77.58,103.79c2.1.89,6.12,2.5,7.85.74s1-5.12-.1-7.59a201.91,201.91,0,0,0-27-45.24c-10.12-12.81-14.65-14-18-15-1-.31-14.27-4-22.6,4.1C12,46.42,11.7,54.63,11.68,55.24Z"/><path class="cls-1" d="M463.15,102.56c11.79,0,16.71,1.44,19.53,5.22,3.63,4.87,3.27,12.87-.48,17.81-3.09,4.08-7.71,5.5-13.7,6.25-19.5,2.46-39.15,4.22-58.8,3.54-1.37,0-6.39.41-9.86-2.6a5.73,5.73,0,0,1-2.13-3.44c-.33-2.42,1.57-4.5,2.34-5.33C419.63,102.69,463.15,102.56,463.15,102.56Z"/><path class="cls-1" d="M391.84,15.82C396.9,5.2,400.29,1.36,404.78.3c5.79-1.37,12.56,2.09,15.23,7.4,2.2,4.38,1.44,9.09-.49,14.77C413.24,41,406.29,59.35,397.24,76.76c-.63,1.21-2.4,5.91-6.5,7.85a5.65,5.65,0,0,1-3.91.57c-2.24-.65-3.21-3.18-3.61-4.19C373.19,55,391.84,15.82,391.84,15.82Z"/><path class="cls-1" d="M473.53,55.24c.36,20.45-30.91,33.71-65.89,48.55-2.1.89-6.12,2.5-7.86.74s-1-5.12.11-7.59a202.25,202.25,0,0,1,27-45.24c10.13-12.81,14.66-14,18-15,1-.31,14.27-4,22.59,4.1C473.26,46.42,473.52,54.63,473.53,55.24Z"/></g></g></svg>